M48
; DRILL file {KiCad (6.0.7)} date Tue Dec  6 18:28:15 2022
; FORMAT={-:-/ absolute / inch / decimal}
; #@! TF.CreationDate,2022-12-06T18:28:15-03:00
; #@! TF.GenerationSoftware,Kicad,Pcbnew,(6.0.7)
; #@! TF.FileFunction,MixedPlating,1,2
FMAT,2
INCH
; #@! TA.AperFunction,Plated,PTH,ViaDrill
T1C0.0157
; #@! TA.AperFunction,Plated,PTH,ComponentDrill
T2C0.0236
; #@! TA.AperFunction,Plated,PTH,ComponentDrill
T3C0.0315
; #@! TA.AperFunction,Plated,PTH,ComponentDrill
T4C0.0394
; #@! TA.AperFunction,Plated,PTH,ComponentDrill
T5C0.0400
; #@! TA.AperFunction,Plated,PTH,ComponentDrill
T6C0.0551
; #@! TA.AperFunction,Plated,PTH,ComponentDrill
T7C0.0591
%
G90
G05
T1
X4.0591Y-3.2805
X4.0591Y-3.5817
X4.1122Y-3.1978
X4.1132Y-3.4813
X4.1417Y-2.8396
X4.1654Y-2.9518
X4.1781Y-3.9203
X4.2156Y-2.3406
X4.2195Y-2.2795
X4.253Y-2.4715
X4.2638Y-3.3356
X4.2687Y-2.7943
X4.3012Y-4.0463
X4.3179Y-3.69
X4.3228Y-3.3937
X4.3228Y-3.4921
X4.3238Y-3.5935
X4.3248Y-3.0787
X4.3258Y-3.7933
X4.3297Y-3.1929
X4.3297Y-3.2933
X4.3307Y-2.8563
X4.4646Y-2.5246
X4.5266Y-4.6181
X4.562Y-3.1467
X4.5827Y-2.9281
X4.6457Y-4.4094
X4.6644Y-2.6959
X4.7057Y-3.999
X4.7244Y-3.189
X4.7244Y-4.4488
X4.7325Y-2.5937
X4.7343Y-3.69
X4.7539Y-3.0118
X4.8031Y-3.2677
X4.8209Y-3.9104
X4.8209Y-3.9104
X4.8209Y-4.0069
X4.8392Y-4.5309
X4.8583Y-3.311
X4.8819Y-3.6614
X4.9016Y-2.9823
X4.9173Y-3.8031
X4.94Y-3.3986
X5.0Y-2.8543
X5.1004Y-4.5699
X5.1181Y-2.4803
X5.1575Y-3.2677
X5.1575Y-3.3858
X5.1969Y-3.5039
X5.1988Y-4.5719
X5.2421Y-4.0354
X5.2854Y-3.8031
X5.2963Y-4.5679
X5.315Y-3.8976
X5.3258Y-4.1191
X5.3907Y-4.5679
X5.4331Y-3.3858
X5.4331Y-3.937
X5.4459Y-4.2234
X5.4528Y-3.2874
X5.4537Y-4.9331
X5.4803Y-2.4065
X5.4941Y-4.1417
X5.5157Y-3.8602
X5.5906Y-3.3465
X5.5906Y-3.837
X5.5945Y-4.2343
X5.6309Y-4.5837
X5.6417Y-4.8848
X5.6555Y-3.439
X5.6752Y-4.4705
X5.7156Y-4.372
X5.7431Y-2.5591
X5.7943Y-3.3169
X5.8268Y-4.0157
X5.8435Y-2.3425
X5.8661Y-2.4803
X5.9045Y-3.1949
X5.9045Y-3.9262
X5.937Y-4.5837
X5.9557Y-2.875
X5.9596Y-2.6073
X5.998Y-3.3051
X6.025Y-2.925
X6.0886Y-4.3701
X6.0965Y-2.9892
X6.0965Y-3.4311
X6.1199Y-4.7457
X6.1811Y-3.937
X6.2Y-2.9
X6.2008Y-4.561
X6.2035Y-4.8008
X6.3256Y-4.7781
X6.378Y-2.874
X6.3819Y-3.6004
X6.4167Y-2.9917
X6.4734Y-4.4921
X6.5453Y-3.435
X6.5925Y-4.3494
X6.5945Y-2.814
X6.7185Y-3.2264
X6.7411Y-3.0738
X6.8219Y-3.6339
X6.8287Y-3.9341
X7.0256Y-3.3514
X7.0571Y-4.065
T2
X4.9891Y-3.0217
X5.0678Y-3.0217
X6.2992Y-3.3465
X6.378Y-3.3465
T3
X5.55Y-3.0835
X5.6484Y-3.0835
X5.8268Y-4.3701
X5.9252Y-4.3701
X6.178Y-3.0709
X6.578Y-3.0709
T4
X4.4Y-2.5937
X4.4Y-2.6937
X4.4Y-2.7937
X4.4Y-2.8937
X4.4Y-2.9937
X4.4Y-3.0937
X4.4Y-3.1937
X4.4Y-3.2937
X4.4Y-3.3937
X4.4Y-3.4937
X4.4Y-3.5937
X4.4Y-3.6937
X4.4Y-3.7937
X4.4Y-3.8937
X4.4Y-3.9937
X4.4Y-4.0937
X4.4Y-4.1937
X4.4Y-4.2937
X4.4Y-4.3937
X4.4Y-4.4937
X4.5Y-2.5937
X4.5Y-2.6937
X4.5Y-2.7937
X4.5Y-2.8937
X4.5Y-2.9937
X4.5Y-3.0937
X4.5Y-3.1937
X4.5Y-3.2937
X4.5Y-3.3937
X4.5Y-3.4937
X4.5Y-3.5937
X4.5Y-3.6937
X4.5Y-3.7937
X4.5Y-3.8937
X4.5Y-3.9937
X4.5Y-4.0937
X4.5Y-4.1937
X4.5Y-4.2937
X4.5Y-4.3937
X4.5Y-4.4937
X4.7996Y-4.651
X4.8996Y-4.651
X4.9996Y-4.651
X5.0996Y-4.651
X5.1996Y-4.651
X5.2996Y-4.651
X5.3996Y-4.651
X5.4996Y-4.651
X5.5906Y-3.637
X5.5906Y-3.737
X5.5906Y-3.837
X5.5906Y-3.937
X5.5996Y-4.651
X5.6996Y-4.651
X5.7996Y-4.651
X5.8996Y-4.651
X5.9996Y-4.651
X6.0996Y-4.651
X6.1996Y-4.651
X6.2996Y-4.651
X6.3996Y-4.651
X6.4996Y-4.651
X6.5996Y-4.651
X7.2047Y-3.637
X7.2047Y-3.737
X7.2047Y-3.837
X7.2047Y-3.937
T5
X5.0932Y-3.709
X5.0932Y-3.809
X5.0932Y-3.909
T6
X5.011Y-2.7487
X5.2079Y-2.7487
X5.4047Y-2.7487
X5.6016Y-2.7487
X5.7984Y-2.7487
X5.9953Y-2.7487
X6.1921Y-2.7487
X6.389Y-2.7487
X6.85Y-2.75
X7.0469Y-2.75
T7
X7.1933Y-2.9734
X7.1933Y-3.189
X7.1933Y-3.4045
T4
G00X6.75Y-4.3894
M15
G01X6.75Y-4.3106
M16
G05
G00X6.9075Y-4.165
M15
G01X6.8287Y-4.165
M16
G05
G00X6.9862Y-4.3894
M15
G01X6.9862Y-4.3106
M16
G05
T0
M30
