%TF.GenerationSoftware,KiCad,Pcbnew,(6.0.7)*%
%TF.CreationDate,2022-12-06T18:26:59-03:00*%
%TF.ProjectId,Circuito_impresso,43697263-7569-4746-9f5f-696d70726573,rev?*%
%TF.SameCoordinates,Original*%
%TF.FileFunction,Legend,Top*%
%TF.FilePolarity,Positive*%
%FSLAX46Y46*%
G04 Gerber Fmt 4.6, Leading zero omitted, Abs format (unit mm)*
G04 Created by KiCad (PCBNEW (6.0.7)) date 2022-12-06 18:26:59*
%MOMM*%
%LPD*%
G01*
G04 APERTURE LIST*
%ADD10C,0.150000*%
%ADD11C,0.100000*%
%ADD12C,0.152400*%
%ADD13C,0.254000*%
%ADD14C,0.010000*%
%ADD15C,0.120000*%
G04 APERTURE END LIST*
D10*
X140000000Y-90500000D02*
X185000000Y-90500000D01*
X185000000Y-90500000D02*
X185000000Y-102000000D01*
X185000000Y-102000000D02*
X140000000Y-102000000D01*
X140000000Y-102000000D02*
X140000000Y-90500000D01*
X180223928Y-97428571D02*
X180366785Y-97476190D01*
X180414404Y-97523809D01*
X180462023Y-97619047D01*
X180462023Y-97761904D01*
X180414404Y-97857142D01*
X180366785Y-97904761D01*
X180271547Y-97952380D01*
X179890595Y-97952380D01*
X179890595Y-96952380D01*
X180223928Y-96952380D01*
X180319166Y-97000000D01*
X180366785Y-97047619D01*
X180414404Y-97142857D01*
X180414404Y-97238095D01*
X180366785Y-97333333D01*
X180319166Y-97380952D01*
X180223928Y-97428571D01*
X179890595Y-97428571D01*
X146170000Y-58969704D02*
X146170000Y-57969704D01*
X146836666Y-57969704D02*
X147027142Y-57969704D01*
X147122380Y-58017324D01*
X147217619Y-58112562D01*
X147265238Y-58303038D01*
X147265238Y-58636371D01*
X147217619Y-58826847D01*
X147122380Y-58922085D01*
X147027142Y-58969704D01*
X146836666Y-58969704D01*
X146741428Y-58922085D01*
X146646190Y-58826847D01*
X146598571Y-58636371D01*
X146598571Y-58303038D01*
X146646190Y-58112562D01*
X146741428Y-58017324D01*
X146836666Y-57969704D01*
X148170000Y-57969704D02*
X147693809Y-57969704D01*
X147646190Y-58445895D01*
X147693809Y-58398276D01*
X147789047Y-58350657D01*
X148027142Y-58350657D01*
X148122380Y-58398276D01*
X148170000Y-58445895D01*
X148217619Y-58541133D01*
X148217619Y-58779228D01*
X148170000Y-58874466D01*
X148122380Y-58922085D01*
X148027142Y-58969704D01*
X147789047Y-58969704D01*
X147693809Y-58922085D01*
X147646190Y-58874466D01*
X173238095Y-58000000D02*
X173142857Y-57952380D01*
X173000000Y-57952380D01*
X172857142Y-58000000D01*
X172761904Y-58095238D01*
X172714285Y-58190476D01*
X172666666Y-58380952D01*
X172666666Y-58523809D01*
X172714285Y-58714285D01*
X172761904Y-58809523D01*
X172857142Y-58904761D01*
X173000000Y-58952380D01*
X173095238Y-58952380D01*
X173238095Y-58904761D01*
X173285714Y-58857142D01*
X173285714Y-58523809D01*
X173095238Y-58523809D01*
X173714285Y-58952380D02*
X173714285Y-57952380D01*
X174285714Y-58952380D01*
X174285714Y-57952380D01*
X174761904Y-58952380D02*
X174761904Y-57952380D01*
X175000000Y-57952380D01*
X175142857Y-58000000D01*
X175238095Y-58095238D01*
X175285714Y-58190476D01*
X175333333Y-58380952D01*
X175333333Y-58523809D01*
X175285714Y-58714285D01*
X175238095Y-58809523D01*
X175142857Y-58904761D01*
X175000000Y-58952380D01*
X174761904Y-58952380D01*
D11*
X173428571Y-123620714D02*
X173357142Y-123692142D01*
X173142857Y-123763571D01*
X173000000Y-123763571D01*
X172785714Y-123692142D01*
X172642857Y-123549285D01*
X172571428Y-123406428D01*
X172500000Y-123120714D01*
X172500000Y-122906428D01*
X172571428Y-122620714D01*
X172642857Y-122477857D01*
X172785714Y-122335000D01*
X173000000Y-122263571D01*
X173142857Y-122263571D01*
X173357142Y-122335000D01*
X173428571Y-122406428D01*
X174785714Y-123763571D02*
X174071428Y-123763571D01*
X174071428Y-122263571D01*
X175285714Y-123763571D02*
X175285714Y-122263571D01*
X175857142Y-122263571D01*
X176000000Y-122335000D01*
X176071428Y-122406428D01*
X176142857Y-122549285D01*
X176142857Y-122763571D01*
X176071428Y-122906428D01*
X176000000Y-122977857D01*
X175857142Y-123049285D01*
X175285714Y-123049285D01*
X177857142Y-123692142D02*
X178000000Y-123763571D01*
X178285714Y-123763571D01*
X178428571Y-123692142D01*
X178500000Y-123549285D01*
X178500000Y-123477857D01*
X178428571Y-123335000D01*
X178285714Y-123263571D01*
X178071428Y-123263571D01*
X177928571Y-123192142D01*
X177857142Y-123049285D01*
X177857142Y-122977857D01*
X177928571Y-122835000D01*
X178071428Y-122763571D01*
X178285714Y-122763571D01*
X178428571Y-122835000D01*
X179142857Y-123763571D02*
X179142857Y-122263571D01*
X179785714Y-123763571D02*
X179785714Y-122977857D01*
X179714285Y-122835000D01*
X179571428Y-122763571D01*
X179357142Y-122763571D01*
X179214285Y-122835000D01*
X179142857Y-122906428D01*
X180500000Y-123763571D02*
X180500000Y-122763571D01*
X180500000Y-122263571D02*
X180428571Y-122335000D01*
X180500000Y-122406428D01*
X180571428Y-122335000D01*
X180500000Y-122263571D01*
X180500000Y-122406428D01*
X181785714Y-123692142D02*
X181642857Y-123763571D01*
X181357142Y-123763571D01*
X181214285Y-123692142D01*
X181142857Y-123549285D01*
X181142857Y-122977857D01*
X181214285Y-122835000D01*
X181357142Y-122763571D01*
X181642857Y-122763571D01*
X181785714Y-122835000D01*
X181857142Y-122977857D01*
X181857142Y-123120714D01*
X181142857Y-123263571D01*
X182714285Y-123763571D02*
X182571428Y-123692142D01*
X182500000Y-123549285D01*
X182500000Y-122263571D01*
X183928571Y-123763571D02*
X183928571Y-122263571D01*
X183928571Y-123692142D02*
X183785714Y-123763571D01*
X183500000Y-123763571D01*
X183357142Y-123692142D01*
X183285714Y-123620714D01*
X183214285Y-123477857D01*
X183214285Y-123049285D01*
X183285714Y-122906428D01*
X183357142Y-122835000D01*
X183500000Y-122763571D01*
X183785714Y-122763571D01*
X183928571Y-122835000D01*
X173928571Y-124678571D02*
X174428571Y-126178571D01*
X174928571Y-124678571D01*
X176000000Y-126107142D02*
X175857142Y-126178571D01*
X175571428Y-126178571D01*
X175428571Y-126107142D01*
X175357142Y-125964285D01*
X175357142Y-125392857D01*
X175428571Y-125250000D01*
X175571428Y-125178571D01*
X175857142Y-125178571D01*
X176000000Y-125250000D01*
X176071428Y-125392857D01*
X176071428Y-125535714D01*
X175357142Y-125678571D01*
X176714285Y-126178571D02*
X176714285Y-125178571D01*
X176714285Y-125464285D02*
X176785714Y-125321428D01*
X176857142Y-125250000D01*
X177000000Y-125178571D01*
X177142857Y-125178571D01*
X177642857Y-126035714D02*
X177714285Y-126107142D01*
X177642857Y-126178571D01*
X177571428Y-126107142D01*
X177642857Y-126035714D01*
X177642857Y-126178571D01*
X180285714Y-126178571D02*
X179428571Y-126178571D01*
X179857142Y-126178571D02*
X179857142Y-124678571D01*
X179714285Y-124892857D01*
X179571428Y-125035714D01*
X179428571Y-125107142D01*
X180928571Y-126035714D02*
X181000000Y-126107142D01*
X180928571Y-126178571D01*
X180857142Y-126107142D01*
X180928571Y-126035714D01*
X180928571Y-126178571D01*
X181928571Y-124678571D02*
X182071428Y-124678571D01*
X182214285Y-124750000D01*
X182285714Y-124821428D01*
X182357142Y-124964285D01*
X182428571Y-125250000D01*
X182428571Y-125607142D01*
X182357142Y-125892857D01*
X182285714Y-126035714D01*
X182214285Y-126107142D01*
X182071428Y-126178571D01*
X181928571Y-126178571D01*
X181785714Y-126107142D01*
X181714285Y-126035714D01*
X181642857Y-125892857D01*
X181571428Y-125607142D01*
X181571428Y-125250000D01*
X181642857Y-124964285D01*
X181714285Y-124821428D01*
X181785714Y-124750000D01*
X181928571Y-124678571D01*
X175714285Y-127093571D02*
X175714285Y-128307857D01*
X175785714Y-128450714D01*
X175857142Y-128522142D01*
X176000000Y-128593571D01*
X176285714Y-128593571D01*
X176428571Y-128522142D01*
X176500000Y-128450714D01*
X176571428Y-128307857D01*
X176571428Y-127093571D01*
X177785714Y-127807857D02*
X177285714Y-127807857D01*
X177285714Y-128593571D02*
X177285714Y-127093571D01*
X178000000Y-127093571D01*
X178500000Y-128522142D02*
X178714285Y-128593571D01*
X179071428Y-128593571D01*
X179214285Y-128522142D01*
X179285714Y-128450714D01*
X179357142Y-128307857D01*
X179357142Y-128165000D01*
X179285714Y-128022142D01*
X179214285Y-127950714D01*
X179071428Y-127879285D01*
X178785714Y-127807857D01*
X178642857Y-127736428D01*
X178571428Y-127665000D01*
X178500000Y-127522142D01*
X178500000Y-127379285D01*
X178571428Y-127236428D01*
X178642857Y-127165000D01*
X178785714Y-127093571D01*
X179142857Y-127093571D01*
X179357142Y-127165000D01*
X180857142Y-128450714D02*
X180785714Y-128522142D01*
X180571428Y-128593571D01*
X180428571Y-128593571D01*
X180214285Y-128522142D01*
X180071428Y-128379285D01*
X180000000Y-128236428D01*
X179928571Y-127950714D01*
X179928571Y-127736428D01*
X180000000Y-127450714D01*
X180071428Y-127307857D01*
X180214285Y-127165000D01*
X180428571Y-127093571D01*
X180571428Y-127093571D01*
X180785714Y-127165000D01*
X180857142Y-127236428D01*
D10*
X177938898Y-57955056D02*
X178272232Y-58955056D01*
X178605565Y-57955056D01*
X178938898Y-58955056D02*
X178938898Y-57955056D01*
X179415089Y-58955056D02*
X179415089Y-57955056D01*
X179986517Y-58955056D01*
X179986517Y-57955056D01*
X134090000Y-124834166D02*
X134042380Y-124929404D01*
X134042380Y-125072261D01*
X134090000Y-125215119D01*
X134185238Y-125310357D01*
X134280476Y-125357976D01*
X134470952Y-125405595D01*
X134613809Y-125405595D01*
X134804285Y-125357976D01*
X134899523Y-125310357D01*
X134994761Y-125215119D01*
X135042380Y-125072261D01*
X135042380Y-124977023D01*
X134994761Y-124834166D01*
X134947142Y-124786547D01*
X134613809Y-124786547D01*
X134613809Y-124977023D01*
X135042380Y-124357976D02*
X134042380Y-124357976D01*
X134042380Y-123977023D01*
X134090000Y-123881785D01*
X134137619Y-123834166D01*
X134232857Y-123786547D01*
X134375714Y-123786547D01*
X134470952Y-123834166D01*
X134518571Y-123881785D01*
X134566190Y-123977023D01*
X134566190Y-124357976D01*
X135042380Y-123357976D02*
X134042380Y-123357976D01*
X134042380Y-122691309D02*
X134042380Y-122500833D01*
X134090000Y-122405595D01*
X134185238Y-122310357D01*
X134375714Y-122262738D01*
X134709047Y-122262738D01*
X134899523Y-122310357D01*
X134994761Y-122405595D01*
X135042380Y-122500833D01*
X135042380Y-122691309D01*
X134994761Y-122786547D01*
X134899523Y-122881785D01*
X134709047Y-122929404D01*
X134375714Y-122929404D01*
X134185238Y-122881785D01*
X134090000Y-122786547D01*
X134042380Y-122691309D01*
X134137619Y-121881785D02*
X134090000Y-121834166D01*
X134042380Y-121738928D01*
X134042380Y-121500833D01*
X134090000Y-121405595D01*
X134137619Y-121357976D01*
X134232857Y-121310357D01*
X134328095Y-121310357D01*
X134470952Y-121357976D01*
X135042380Y-121929404D01*
X135042380Y-121310357D01*
X134042380Y-120405595D02*
X134042380Y-120881785D01*
X134518571Y-120929404D01*
X134470952Y-120881785D01*
X134423333Y-120786547D01*
X134423333Y-120548452D01*
X134470952Y-120453214D01*
X134518571Y-120405595D01*
X134613809Y-120357976D01*
X134851904Y-120357976D01*
X134947142Y-120405595D01*
X134994761Y-120453214D01*
X135042380Y-120548452D01*
X135042380Y-120786547D01*
X134994761Y-120881785D01*
X134947142Y-120929404D01*
X123930000Y-124834166D02*
X123882380Y-124929404D01*
X123882380Y-125072261D01*
X123930000Y-125215119D01*
X124025238Y-125310357D01*
X124120476Y-125357976D01*
X124310952Y-125405595D01*
X124453809Y-125405595D01*
X124644285Y-125357976D01*
X124739523Y-125310357D01*
X124834761Y-125215119D01*
X124882380Y-125072261D01*
X124882380Y-124977023D01*
X124834761Y-124834166D01*
X124787142Y-124786547D01*
X124453809Y-124786547D01*
X124453809Y-124977023D01*
X124882380Y-124357976D02*
X123882380Y-124357976D01*
X123882380Y-123977023D01*
X123930000Y-123881785D01*
X123977619Y-123834166D01*
X124072857Y-123786547D01*
X124215714Y-123786547D01*
X124310952Y-123834166D01*
X124358571Y-123881785D01*
X124406190Y-123977023D01*
X124406190Y-124357976D01*
X124882380Y-123357976D02*
X123882380Y-123357976D01*
X123882380Y-122691309D02*
X123882380Y-122500833D01*
X123930000Y-122405595D01*
X124025238Y-122310357D01*
X124215714Y-122262738D01*
X124549047Y-122262738D01*
X124739523Y-122310357D01*
X124834761Y-122405595D01*
X124882380Y-122500833D01*
X124882380Y-122691309D01*
X124834761Y-122786547D01*
X124739523Y-122881785D01*
X124549047Y-122929404D01*
X124215714Y-122929404D01*
X124025238Y-122881785D01*
X123930000Y-122786547D01*
X123882380Y-122691309D01*
X123977619Y-121881785D02*
X123930000Y-121834166D01*
X123882380Y-121738928D01*
X123882380Y-121500833D01*
X123930000Y-121405595D01*
X123977619Y-121357976D01*
X124072857Y-121310357D01*
X124168095Y-121310357D01*
X124310952Y-121357976D01*
X124882380Y-121929404D01*
X124882380Y-121310357D01*
X123882380Y-120691309D02*
X123882380Y-120596071D01*
X123930000Y-120500833D01*
X123977619Y-120453214D01*
X124072857Y-120405595D01*
X124263333Y-120357976D01*
X124501428Y-120357976D01*
X124691904Y-120405595D01*
X124787142Y-120453214D01*
X124834761Y-120500833D01*
X124882380Y-120596071D01*
X124882380Y-120691309D01*
X124834761Y-120786547D01*
X124787142Y-120834166D01*
X124691904Y-120881785D01*
X124501428Y-120929404D01*
X124263333Y-120929404D01*
X124072857Y-120881785D01*
X123977619Y-120834166D01*
X123930000Y-120786547D01*
X123882380Y-120691309D01*
X178363265Y-99475301D02*
X178268027Y-99427681D01*
X178125170Y-99427681D01*
X177982313Y-99475301D01*
X177887075Y-99570539D01*
X177839456Y-99665777D01*
X177791837Y-99856253D01*
X177791837Y-99999110D01*
X177839456Y-100189586D01*
X177887075Y-100284824D01*
X177982313Y-100380062D01*
X178125170Y-100427681D01*
X178220408Y-100427681D01*
X178363265Y-100380062D01*
X178410884Y-100332443D01*
X178410884Y-99999110D01*
X178220408Y-99999110D01*
X178839456Y-100427681D02*
X178839456Y-99427681D01*
X179410884Y-100427681D01*
X179410884Y-99427681D01*
X179887075Y-100427681D02*
X179887075Y-99427681D01*
X180125170Y-99427681D01*
X180268027Y-99475301D01*
X180363265Y-99570539D01*
X180410884Y-99665777D01*
X180458503Y-99856253D01*
X180458503Y-99999110D01*
X180410884Y-100189586D01*
X180363265Y-100284824D01*
X180268027Y-100380062D01*
X180125170Y-100427681D01*
X179887075Y-100427681D01*
X131550000Y-123881785D02*
X131502380Y-123977023D01*
X131502380Y-124119880D01*
X131550000Y-124262738D01*
X131645238Y-124357976D01*
X131740476Y-124405595D01*
X131930952Y-124453214D01*
X132073809Y-124453214D01*
X132264285Y-124405595D01*
X132359523Y-124357976D01*
X132454761Y-124262738D01*
X132502380Y-124119880D01*
X132502380Y-124024642D01*
X132454761Y-123881785D01*
X132407142Y-123834166D01*
X132073809Y-123834166D01*
X132073809Y-124024642D01*
X132502380Y-123405595D02*
X131502380Y-123405595D01*
X131502380Y-123024642D01*
X131550000Y-122929404D01*
X131597619Y-122881785D01*
X131692857Y-122834166D01*
X131835714Y-122834166D01*
X131930952Y-122881785D01*
X131978571Y-122929404D01*
X132026190Y-123024642D01*
X132026190Y-123405595D01*
X132502380Y-122405595D02*
X131502380Y-122405595D01*
X131502380Y-121738928D02*
X131502380Y-121548452D01*
X131550000Y-121453214D01*
X131645238Y-121357976D01*
X131835714Y-121310357D01*
X132169047Y-121310357D01*
X132359523Y-121357976D01*
X132454761Y-121453214D01*
X132502380Y-121548452D01*
X132502380Y-121738928D01*
X132454761Y-121834166D01*
X132359523Y-121929404D01*
X132169047Y-121977023D01*
X131835714Y-121977023D01*
X131645238Y-121929404D01*
X131550000Y-121834166D01*
X131502380Y-121738928D01*
X131930952Y-120738928D02*
X131883333Y-120834166D01*
X131835714Y-120881785D01*
X131740476Y-120929404D01*
X131692857Y-120929404D01*
X131597619Y-120881785D01*
X131550000Y-120834166D01*
X131502380Y-120738928D01*
X131502380Y-120548452D01*
X131550000Y-120453214D01*
X131597619Y-120405595D01*
X131692857Y-120357976D01*
X131740476Y-120357976D01*
X131835714Y-120405595D01*
X131883333Y-120453214D01*
X131930952Y-120548452D01*
X131930952Y-120738928D01*
X131978571Y-120834166D01*
X132026190Y-120881785D01*
X132121428Y-120929404D01*
X132311904Y-120929404D01*
X132407142Y-120881785D01*
X132454761Y-120834166D01*
X132502380Y-120738928D01*
X132502380Y-120548452D01*
X132454761Y-120453214D01*
X132407142Y-120405595D01*
X132311904Y-120357976D01*
X132121428Y-120357976D01*
X132026190Y-120405595D01*
X131978571Y-120453214D01*
X131930952Y-120548452D01*
X151870000Y-123881785D02*
X151822380Y-123977023D01*
X151822380Y-124119880D01*
X151870000Y-124262738D01*
X151965238Y-124357976D01*
X152060476Y-124405595D01*
X152250952Y-124453214D01*
X152393809Y-124453214D01*
X152584285Y-124405595D01*
X152679523Y-124357976D01*
X152774761Y-124262738D01*
X152822380Y-124119880D01*
X152822380Y-124024642D01*
X152774761Y-123881785D01*
X152727142Y-123834166D01*
X152393809Y-123834166D01*
X152393809Y-124024642D01*
X152822380Y-123405595D02*
X151822380Y-123405595D01*
X151822380Y-123024642D01*
X151870000Y-122929404D01*
X151917619Y-122881785D01*
X152012857Y-122834166D01*
X152155714Y-122834166D01*
X152250952Y-122881785D01*
X152298571Y-122929404D01*
X152346190Y-123024642D01*
X152346190Y-123405595D01*
X152822380Y-122405595D02*
X151822380Y-122405595D01*
X151822380Y-121738928D02*
X151822380Y-121548452D01*
X151870000Y-121453214D01*
X151965238Y-121357976D01*
X152155714Y-121310357D01*
X152489047Y-121310357D01*
X152679523Y-121357976D01*
X152774761Y-121453214D01*
X152822380Y-121548452D01*
X152822380Y-121738928D01*
X152774761Y-121834166D01*
X152679523Y-121929404D01*
X152489047Y-121977023D01*
X152155714Y-121977023D01*
X151965238Y-121929404D01*
X151870000Y-121834166D01*
X151822380Y-121738928D01*
X152155714Y-120453214D02*
X152822380Y-120453214D01*
X151774761Y-120691309D02*
X152489047Y-120929404D01*
X152489047Y-120310357D01*
X139170000Y-124834166D02*
X139122380Y-124929404D01*
X139122380Y-125072261D01*
X139170000Y-125215119D01*
X139265238Y-125310357D01*
X139360476Y-125357976D01*
X139550952Y-125405595D01*
X139693809Y-125405595D01*
X139884285Y-125357976D01*
X139979523Y-125310357D01*
X140074761Y-125215119D01*
X140122380Y-125072261D01*
X140122380Y-124977023D01*
X140074761Y-124834166D01*
X140027142Y-124786547D01*
X139693809Y-124786547D01*
X139693809Y-124977023D01*
X140122380Y-124357976D02*
X139122380Y-124357976D01*
X139122380Y-123977023D01*
X139170000Y-123881785D01*
X139217619Y-123834166D01*
X139312857Y-123786547D01*
X139455714Y-123786547D01*
X139550952Y-123834166D01*
X139598571Y-123881785D01*
X139646190Y-123977023D01*
X139646190Y-124357976D01*
X140122380Y-123357976D02*
X139122380Y-123357976D01*
X139122380Y-122691309D02*
X139122380Y-122500833D01*
X139170000Y-122405595D01*
X139265238Y-122310357D01*
X139455714Y-122262738D01*
X139789047Y-122262738D01*
X139979523Y-122310357D01*
X140074761Y-122405595D01*
X140122380Y-122500833D01*
X140122380Y-122691309D01*
X140074761Y-122786547D01*
X139979523Y-122881785D01*
X139789047Y-122929404D01*
X139455714Y-122929404D01*
X139265238Y-122881785D01*
X139170000Y-122786547D01*
X139122380Y-122691309D01*
X140122380Y-121310357D02*
X140122380Y-121881785D01*
X140122380Y-121596071D02*
X139122380Y-121596071D01*
X139265238Y-121691309D01*
X139360476Y-121786547D01*
X139408095Y-121881785D01*
X140122380Y-120834166D02*
X140122380Y-120643690D01*
X140074761Y-120548452D01*
X140027142Y-120500833D01*
X139884285Y-120405595D01*
X139693809Y-120357976D01*
X139312857Y-120357976D01*
X139217619Y-120405595D01*
X139170000Y-120453214D01*
X139122380Y-120548452D01*
X139122380Y-120738928D01*
X139170000Y-120834166D01*
X139217619Y-120881785D01*
X139312857Y-120929404D01*
X139550952Y-120929404D01*
X139646190Y-120881785D01*
X139693809Y-120834166D01*
X139741428Y-120738928D01*
X139741428Y-120548452D01*
X139693809Y-120453214D01*
X139646190Y-120405595D01*
X139550952Y-120357976D01*
X164570000Y-122453214D02*
X164522380Y-122548452D01*
X164522380Y-122691309D01*
X164570000Y-122834166D01*
X164665238Y-122929404D01*
X164760476Y-122977023D01*
X164950952Y-123024642D01*
X165093809Y-123024642D01*
X165284285Y-122977023D01*
X165379523Y-122929404D01*
X165474761Y-122834166D01*
X165522380Y-122691309D01*
X165522380Y-122596071D01*
X165474761Y-122453214D01*
X165427142Y-122405595D01*
X165093809Y-122405595D01*
X165093809Y-122596071D01*
X165522380Y-121977023D02*
X164522380Y-121977023D01*
X165522380Y-121405595D01*
X164522380Y-121405595D01*
X165522380Y-120929404D02*
X164522380Y-120929404D01*
X164522380Y-120691309D01*
X164570000Y-120548452D01*
X164665238Y-120453214D01*
X164760476Y-120405595D01*
X164950952Y-120357976D01*
X165093809Y-120357976D01*
X165284285Y-120405595D01*
X165379523Y-120453214D01*
X165474761Y-120548452D01*
X165522380Y-120691309D01*
X165522380Y-120929404D01*
X131342734Y-58972380D02*
X131342734Y-57972380D01*
X132009400Y-57972380D02*
X132199876Y-57972380D01*
X132295114Y-58020000D01*
X132390353Y-58115238D01*
X132437972Y-58305714D01*
X132437972Y-58639047D01*
X132390353Y-58829523D01*
X132295114Y-58924761D01*
X132199876Y-58972380D01*
X132009400Y-58972380D01*
X131914162Y-58924761D01*
X131818924Y-58829523D01*
X131771305Y-58639047D01*
X131771305Y-58305714D01*
X131818924Y-58115238D01*
X131914162Y-58020000D01*
X132009400Y-57972380D01*
X132818924Y-58067619D02*
X132866543Y-58020000D01*
X132961781Y-57972380D01*
X133199876Y-57972380D01*
X133295114Y-58020000D01*
X133342734Y-58067619D01*
X133390353Y-58162857D01*
X133390353Y-58258095D01*
X133342734Y-58400952D01*
X132771305Y-58972380D01*
X133390353Y-58972380D01*
X177890595Y-91952380D02*
X178223928Y-92952380D01*
X178557261Y-91952380D01*
X179462023Y-92857142D02*
X179414404Y-92904761D01*
X179271547Y-92952380D01*
X179176309Y-92952380D01*
X179033452Y-92904761D01*
X178938214Y-92809523D01*
X178890595Y-92714285D01*
X178842976Y-92523809D01*
X178842976Y-92380952D01*
X178890595Y-92190476D01*
X178938214Y-92095238D01*
X179033452Y-92000000D01*
X179176309Y-91952380D01*
X179271547Y-91952380D01*
X179414404Y-92000000D01*
X179462023Y-92047619D01*
X180462023Y-92857142D02*
X180414404Y-92904761D01*
X180271547Y-92952380D01*
X180176309Y-92952380D01*
X180033452Y-92904761D01*
X179938214Y-92809523D01*
X179890595Y-92714285D01*
X179842976Y-92523809D01*
X179842976Y-92380952D01*
X179890595Y-92190476D01*
X179938214Y-92095238D01*
X180033452Y-92000000D01*
X180176309Y-91952380D01*
X180271547Y-91952380D01*
X180414404Y-92000000D01*
X180462023Y-92047619D01*
X179982313Y-95166666D02*
X180458503Y-95166666D01*
X179887075Y-95452380D02*
X180220408Y-94452380D01*
X180553741Y-95452380D01*
X129010000Y-123881785D02*
X128962380Y-123977023D01*
X128962380Y-124119880D01*
X129010000Y-124262738D01*
X129105238Y-124357976D01*
X129200476Y-124405595D01*
X129390952Y-124453214D01*
X129533809Y-124453214D01*
X129724285Y-124405595D01*
X129819523Y-124357976D01*
X129914761Y-124262738D01*
X129962380Y-124119880D01*
X129962380Y-124024642D01*
X129914761Y-123881785D01*
X129867142Y-123834166D01*
X129533809Y-123834166D01*
X129533809Y-124024642D01*
X129962380Y-123405595D02*
X128962380Y-123405595D01*
X128962380Y-123024642D01*
X129010000Y-122929404D01*
X129057619Y-122881785D01*
X129152857Y-122834166D01*
X129295714Y-122834166D01*
X129390952Y-122881785D01*
X129438571Y-122929404D01*
X129486190Y-123024642D01*
X129486190Y-123405595D01*
X129962380Y-122405595D02*
X128962380Y-122405595D01*
X128962380Y-121738928D02*
X128962380Y-121548452D01*
X129010000Y-121453214D01*
X129105238Y-121357976D01*
X129295714Y-121310357D01*
X129629047Y-121310357D01*
X129819523Y-121357976D01*
X129914761Y-121453214D01*
X129962380Y-121548452D01*
X129962380Y-121738928D01*
X129914761Y-121834166D01*
X129819523Y-121929404D01*
X129629047Y-121977023D01*
X129295714Y-121977023D01*
X129105238Y-121929404D01*
X129010000Y-121834166D01*
X128962380Y-121738928D01*
X129390952Y-120738928D02*
X129343333Y-120834166D01*
X129295714Y-120881785D01*
X129200476Y-120929404D01*
X129152857Y-120929404D01*
X129057619Y-120881785D01*
X129010000Y-120834166D01*
X128962380Y-120738928D01*
X128962380Y-120548452D01*
X129010000Y-120453214D01*
X129057619Y-120405595D01*
X129152857Y-120357976D01*
X129200476Y-120357976D01*
X129295714Y-120405595D01*
X129343333Y-120453214D01*
X129390952Y-120548452D01*
X129390952Y-120738928D01*
X129438571Y-120834166D01*
X129486190Y-120881785D01*
X129581428Y-120929404D01*
X129771904Y-120929404D01*
X129867142Y-120881785D01*
X129914761Y-120834166D01*
X129962380Y-120738928D01*
X129962380Y-120548452D01*
X129914761Y-120453214D01*
X129867142Y-120405595D01*
X129771904Y-120357976D01*
X129581428Y-120357976D01*
X129486190Y-120405595D01*
X129438571Y-120453214D01*
X129390952Y-120548452D01*
X156165863Y-58969704D02*
X156165863Y-57969704D01*
X156832529Y-57969704D02*
X157023005Y-57969704D01*
X157118243Y-58017324D01*
X157213482Y-58112562D01*
X157261101Y-58303038D01*
X157261101Y-58636371D01*
X157213482Y-58826847D01*
X157118243Y-58922085D01*
X157023005Y-58969704D01*
X156832529Y-58969704D01*
X156737291Y-58922085D01*
X156642053Y-58826847D01*
X156594434Y-58636371D01*
X156594434Y-58303038D01*
X156642053Y-58112562D01*
X156737291Y-58017324D01*
X156832529Y-57969704D01*
X157594434Y-57969704D02*
X158261101Y-57969704D01*
X157832529Y-58969704D01*
X156950000Y-123881785D02*
X156902380Y-123977023D01*
X156902380Y-124119880D01*
X156950000Y-124262738D01*
X157045238Y-124357976D01*
X157140476Y-124405595D01*
X157330952Y-124453214D01*
X157473809Y-124453214D01*
X157664285Y-124405595D01*
X157759523Y-124357976D01*
X157854761Y-124262738D01*
X157902380Y-124119880D01*
X157902380Y-124024642D01*
X157854761Y-123881785D01*
X157807142Y-123834166D01*
X157473809Y-123834166D01*
X157473809Y-124024642D01*
X157902380Y-123405595D02*
X156902380Y-123405595D01*
X156902380Y-123024642D01*
X156950000Y-122929404D01*
X156997619Y-122881785D01*
X157092857Y-122834166D01*
X157235714Y-122834166D01*
X157330952Y-122881785D01*
X157378571Y-122929404D01*
X157426190Y-123024642D01*
X157426190Y-123405595D01*
X157902380Y-122405595D02*
X156902380Y-122405595D01*
X156902380Y-121738928D02*
X156902380Y-121548452D01*
X156950000Y-121453214D01*
X157045238Y-121357976D01*
X157235714Y-121310357D01*
X157569047Y-121310357D01*
X157759523Y-121357976D01*
X157854761Y-121453214D01*
X157902380Y-121548452D01*
X157902380Y-121738928D01*
X157854761Y-121834166D01*
X157759523Y-121929404D01*
X157569047Y-121977023D01*
X157235714Y-121977023D01*
X157045238Y-121929404D01*
X156950000Y-121834166D01*
X156902380Y-121738928D01*
X156997619Y-120929404D02*
X156950000Y-120881785D01*
X156902380Y-120786547D01*
X156902380Y-120548452D01*
X156950000Y-120453214D01*
X156997619Y-120405595D01*
X157092857Y-120357976D01*
X157188095Y-120357976D01*
X157330952Y-120405595D01*
X157902380Y-120977023D01*
X157902380Y-120357976D01*
X154410000Y-123881785D02*
X154362380Y-123977023D01*
X154362380Y-124119880D01*
X154410000Y-124262738D01*
X154505238Y-124357976D01*
X154600476Y-124405595D01*
X154790952Y-124453214D01*
X154933809Y-124453214D01*
X155124285Y-124405595D01*
X155219523Y-124357976D01*
X155314761Y-124262738D01*
X155362380Y-124119880D01*
X155362380Y-124024642D01*
X155314761Y-123881785D01*
X155267142Y-123834166D01*
X154933809Y-123834166D01*
X154933809Y-124024642D01*
X155362380Y-123405595D02*
X154362380Y-123405595D01*
X154362380Y-123024642D01*
X154410000Y-122929404D01*
X154457619Y-122881785D01*
X154552857Y-122834166D01*
X154695714Y-122834166D01*
X154790952Y-122881785D01*
X154838571Y-122929404D01*
X154886190Y-123024642D01*
X154886190Y-123405595D01*
X155362380Y-122405595D02*
X154362380Y-122405595D01*
X154362380Y-121738928D02*
X154362380Y-121548452D01*
X154410000Y-121453214D01*
X154505238Y-121357976D01*
X154695714Y-121310357D01*
X155029047Y-121310357D01*
X155219523Y-121357976D01*
X155314761Y-121453214D01*
X155362380Y-121548452D01*
X155362380Y-121738928D01*
X155314761Y-121834166D01*
X155219523Y-121929404D01*
X155029047Y-121977023D01*
X154695714Y-121977023D01*
X154505238Y-121929404D01*
X154410000Y-121834166D01*
X154362380Y-121738928D01*
X154362380Y-120977023D02*
X154362380Y-120357976D01*
X154743333Y-120691309D01*
X154743333Y-120548452D01*
X154790952Y-120453214D01*
X154838571Y-120405595D01*
X154933809Y-120357976D01*
X155171904Y-120357976D01*
X155267142Y-120405595D01*
X155314761Y-120453214D01*
X155362380Y-120548452D01*
X155362380Y-120834166D01*
X155314761Y-120929404D01*
X155267142Y-120977023D01*
X126340000Y-58972380D02*
X126340000Y-57972380D01*
X127006666Y-57972380D02*
X127197142Y-57972380D01*
X127292380Y-58020000D01*
X127387619Y-58115238D01*
X127435238Y-58305714D01*
X127435238Y-58639047D01*
X127387619Y-58829523D01*
X127292380Y-58924761D01*
X127197142Y-58972380D01*
X127006666Y-58972380D01*
X126911428Y-58924761D01*
X126816190Y-58829523D01*
X126768571Y-58639047D01*
X126768571Y-58305714D01*
X126816190Y-58115238D01*
X126911428Y-58020000D01*
X127006666Y-57972380D01*
X128387619Y-58972380D02*
X127816190Y-58972380D01*
X128101904Y-58972380D02*
X128101904Y-57972380D01*
X128006666Y-58115238D01*
X127911428Y-58210476D01*
X127816190Y-58258095D01*
X126470000Y-124834166D02*
X126422380Y-124929404D01*
X126422380Y-125072261D01*
X126470000Y-125215119D01*
X126565238Y-125310357D01*
X126660476Y-125357976D01*
X126850952Y-125405595D01*
X126993809Y-125405595D01*
X127184285Y-125357976D01*
X127279523Y-125310357D01*
X127374761Y-125215119D01*
X127422380Y-125072261D01*
X127422380Y-124977023D01*
X127374761Y-124834166D01*
X127327142Y-124786547D01*
X126993809Y-124786547D01*
X126993809Y-124977023D01*
X127422380Y-124357976D02*
X126422380Y-124357976D01*
X126422380Y-123977023D01*
X126470000Y-123881785D01*
X126517619Y-123834166D01*
X126612857Y-123786547D01*
X126755714Y-123786547D01*
X126850952Y-123834166D01*
X126898571Y-123881785D01*
X126946190Y-123977023D01*
X126946190Y-124357976D01*
X127422380Y-123357976D02*
X126422380Y-123357976D01*
X126422380Y-122691309D02*
X126422380Y-122500833D01*
X126470000Y-122405595D01*
X126565238Y-122310357D01*
X126755714Y-122262738D01*
X127089047Y-122262738D01*
X127279523Y-122310357D01*
X127374761Y-122405595D01*
X127422380Y-122500833D01*
X127422380Y-122691309D01*
X127374761Y-122786547D01*
X127279523Y-122881785D01*
X127089047Y-122929404D01*
X126755714Y-122929404D01*
X126565238Y-122881785D01*
X126470000Y-122786547D01*
X126422380Y-122691309D01*
X127422380Y-121310357D02*
X127422380Y-121881785D01*
X127422380Y-121596071D02*
X126422380Y-121596071D01*
X126565238Y-121691309D01*
X126660476Y-121786547D01*
X126708095Y-121881785D01*
X126422380Y-120453214D02*
X126422380Y-120643690D01*
X126470000Y-120738928D01*
X126517619Y-120786547D01*
X126660476Y-120881785D01*
X126850952Y-120929404D01*
X127231904Y-120929404D01*
X127327142Y-120881785D01*
X127374761Y-120834166D01*
X127422380Y-120738928D01*
X127422380Y-120548452D01*
X127374761Y-120453214D01*
X127327142Y-120405595D01*
X127231904Y-120357976D01*
X126993809Y-120357976D01*
X126898571Y-120405595D01*
X126850952Y-120453214D01*
X126803333Y-120548452D01*
X126803333Y-120738928D01*
X126850952Y-120834166D01*
X126898571Y-120881785D01*
X126993809Y-120929404D01*
X132918244Y-96020000D02*
X132823006Y-95972380D01*
X132680149Y-95972380D01*
X132537292Y-96020000D01*
X132442054Y-96115238D01*
X132394435Y-96210476D01*
X132346816Y-96400952D01*
X132346816Y-96543809D01*
X132394435Y-96734285D01*
X132442054Y-96829523D01*
X132537292Y-96924761D01*
X132680149Y-96972380D01*
X132775387Y-96972380D01*
X132918244Y-96924761D01*
X132965863Y-96877142D01*
X132965863Y-96543809D01*
X132775387Y-96543809D01*
X133394435Y-96972380D02*
X133394435Y-95972380D01*
X133965863Y-96972380D01*
X133965863Y-95972380D01*
X134442054Y-96972380D02*
X134442054Y-95972380D01*
X134680149Y-95972380D01*
X134823006Y-96020000D01*
X134918244Y-96115238D01*
X134965863Y-96210476D01*
X135013482Y-96400952D01*
X135013482Y-96543809D01*
X134965863Y-96734285D01*
X134918244Y-96829523D01*
X134823006Y-96924761D01*
X134680149Y-96972380D01*
X134442054Y-96972380D01*
X141710000Y-124834166D02*
X141662380Y-124929404D01*
X141662380Y-125072261D01*
X141710000Y-125215119D01*
X141805238Y-125310357D01*
X141900476Y-125357976D01*
X142090952Y-125405595D01*
X142233809Y-125405595D01*
X142424285Y-125357976D01*
X142519523Y-125310357D01*
X142614761Y-125215119D01*
X142662380Y-125072261D01*
X142662380Y-124977023D01*
X142614761Y-124834166D01*
X142567142Y-124786547D01*
X142233809Y-124786547D01*
X142233809Y-124977023D01*
X142662380Y-124357976D02*
X141662380Y-124357976D01*
X141662380Y-123977023D01*
X141710000Y-123881785D01*
X141757619Y-123834166D01*
X141852857Y-123786547D01*
X141995714Y-123786547D01*
X142090952Y-123834166D01*
X142138571Y-123881785D01*
X142186190Y-123977023D01*
X142186190Y-124357976D01*
X142662380Y-123357976D02*
X141662380Y-123357976D01*
X141662380Y-122691309D02*
X141662380Y-122500833D01*
X141710000Y-122405595D01*
X141805238Y-122310357D01*
X141995714Y-122262738D01*
X142329047Y-122262738D01*
X142519523Y-122310357D01*
X142614761Y-122405595D01*
X142662380Y-122500833D01*
X142662380Y-122691309D01*
X142614761Y-122786547D01*
X142519523Y-122881785D01*
X142329047Y-122929404D01*
X141995714Y-122929404D01*
X141805238Y-122881785D01*
X141710000Y-122786547D01*
X141662380Y-122691309D01*
X142662380Y-121310357D02*
X142662380Y-121881785D01*
X142662380Y-121596071D02*
X141662380Y-121596071D01*
X141805238Y-121691309D01*
X141900476Y-121786547D01*
X141948095Y-121881785D01*
X141662380Y-120977023D02*
X141662380Y-120357976D01*
X142043333Y-120691309D01*
X142043333Y-120548452D01*
X142090952Y-120453214D01*
X142138571Y-120405595D01*
X142233809Y-120357976D01*
X142471904Y-120357976D01*
X142567142Y-120405595D01*
X142614761Y-120453214D01*
X142662380Y-120548452D01*
X142662380Y-120834166D01*
X142614761Y-120929404D01*
X142567142Y-120977023D01*
X144439218Y-99625005D02*
X145010646Y-99625005D01*
X144724932Y-100625005D02*
X144724932Y-99625005D01*
X145248741Y-99625005D02*
X145915408Y-100625005D01*
X145915408Y-99625005D02*
X145248741Y-100625005D01*
X121390000Y-124834166D02*
X121342380Y-124929404D01*
X121342380Y-125072261D01*
X121390000Y-125215119D01*
X121485238Y-125310357D01*
X121580476Y-125357976D01*
X121770952Y-125405595D01*
X121913809Y-125405595D01*
X122104285Y-125357976D01*
X122199523Y-125310357D01*
X122294761Y-125215119D01*
X122342380Y-125072261D01*
X122342380Y-124977023D01*
X122294761Y-124834166D01*
X122247142Y-124786547D01*
X121913809Y-124786547D01*
X121913809Y-124977023D01*
X122342380Y-124357976D02*
X121342380Y-124357976D01*
X121342380Y-123977023D01*
X121390000Y-123881785D01*
X121437619Y-123834166D01*
X121532857Y-123786547D01*
X121675714Y-123786547D01*
X121770952Y-123834166D01*
X121818571Y-123881785D01*
X121866190Y-123977023D01*
X121866190Y-124357976D01*
X122342380Y-123357976D02*
X121342380Y-123357976D01*
X121342380Y-122691309D02*
X121342380Y-122500833D01*
X121390000Y-122405595D01*
X121485238Y-122310357D01*
X121675714Y-122262738D01*
X122009047Y-122262738D01*
X122199523Y-122310357D01*
X122294761Y-122405595D01*
X122342380Y-122500833D01*
X122342380Y-122691309D01*
X122294761Y-122786547D01*
X122199523Y-122881785D01*
X122009047Y-122929404D01*
X121675714Y-122929404D01*
X121485238Y-122881785D01*
X121390000Y-122786547D01*
X121342380Y-122691309D01*
X121437619Y-121881785D02*
X121390000Y-121834166D01*
X121342380Y-121738928D01*
X121342380Y-121500833D01*
X121390000Y-121405595D01*
X121437619Y-121357976D01*
X121532857Y-121310357D01*
X121628095Y-121310357D01*
X121770952Y-121357976D01*
X122342380Y-121929404D01*
X122342380Y-121310357D01*
X122342380Y-120357976D02*
X122342380Y-120929404D01*
X122342380Y-120643690D02*
X121342380Y-120643690D01*
X121485238Y-120738928D01*
X121580476Y-120834166D01*
X121628095Y-120929404D01*
X132415595Y-94432380D02*
X132415595Y-93432380D01*
X132891785Y-94432380D02*
X132891785Y-93432380D01*
X133463214Y-94432380D01*
X133463214Y-93432380D01*
X145157023Y-93149704D02*
X144823690Y-92673514D01*
X144585595Y-93149704D02*
X144585595Y-92149704D01*
X144966547Y-92149704D01*
X145061785Y-92197324D01*
X145109404Y-92244943D01*
X145157023Y-92340181D01*
X145157023Y-92483038D01*
X145109404Y-92578276D01*
X145061785Y-92625895D01*
X144966547Y-92673514D01*
X144585595Y-92673514D01*
X145490357Y-92149704D02*
X146157023Y-93149704D01*
X146157023Y-92149704D02*
X145490357Y-93149704D01*
X144250000Y-124834166D02*
X144202380Y-124929404D01*
X144202380Y-125072261D01*
X144250000Y-125215119D01*
X144345238Y-125310357D01*
X144440476Y-125357976D01*
X144630952Y-125405595D01*
X144773809Y-125405595D01*
X144964285Y-125357976D01*
X145059523Y-125310357D01*
X145154761Y-125215119D01*
X145202380Y-125072261D01*
X145202380Y-124977023D01*
X145154761Y-124834166D01*
X145107142Y-124786547D01*
X144773809Y-124786547D01*
X144773809Y-124977023D01*
X145202380Y-124357976D02*
X144202380Y-124357976D01*
X144202380Y-123977023D01*
X144250000Y-123881785D01*
X144297619Y-123834166D01*
X144392857Y-123786547D01*
X144535714Y-123786547D01*
X144630952Y-123834166D01*
X144678571Y-123881785D01*
X144726190Y-123977023D01*
X144726190Y-124357976D01*
X145202380Y-123357976D02*
X144202380Y-123357976D01*
X144202380Y-122691309D02*
X144202380Y-122500833D01*
X144250000Y-122405595D01*
X144345238Y-122310357D01*
X144535714Y-122262738D01*
X144869047Y-122262738D01*
X145059523Y-122310357D01*
X145154761Y-122405595D01*
X145202380Y-122500833D01*
X145202380Y-122691309D01*
X145154761Y-122786547D01*
X145059523Y-122881785D01*
X144869047Y-122929404D01*
X144535714Y-122929404D01*
X144345238Y-122881785D01*
X144250000Y-122786547D01*
X144202380Y-122691309D01*
X145202380Y-121310357D02*
X145202380Y-121881785D01*
X145202380Y-121596071D02*
X144202380Y-121596071D01*
X144345238Y-121691309D01*
X144440476Y-121786547D01*
X144488095Y-121881785D01*
X145202380Y-120357976D02*
X145202380Y-120929404D01*
X145202380Y-120643690D02*
X144202380Y-120643690D01*
X144345238Y-120738928D01*
X144440476Y-120834166D01*
X144488095Y-120929404D01*
X151330000Y-58972380D02*
X151330000Y-57972380D01*
X151996666Y-57972380D02*
X152187142Y-57972380D01*
X152282380Y-58020000D01*
X152377619Y-58115238D01*
X152425238Y-58305714D01*
X152425238Y-58639047D01*
X152377619Y-58829523D01*
X152282380Y-58924761D01*
X152187142Y-58972380D01*
X151996666Y-58972380D01*
X151901428Y-58924761D01*
X151806190Y-58829523D01*
X151758571Y-58639047D01*
X151758571Y-58305714D01*
X151806190Y-58115238D01*
X151901428Y-58020000D01*
X151996666Y-57972380D01*
X153282380Y-57972380D02*
X153091904Y-57972380D01*
X152996666Y-58020000D01*
X152949047Y-58067619D01*
X152853809Y-58210476D01*
X152806190Y-58400952D01*
X152806190Y-58781904D01*
X152853809Y-58877142D01*
X152901428Y-58924761D01*
X152996666Y-58972380D01*
X153187142Y-58972380D01*
X153282380Y-58924761D01*
X153330000Y-58877142D01*
X153377619Y-58781904D01*
X153377619Y-58543809D01*
X153330000Y-58448571D01*
X153282380Y-58400952D01*
X153187142Y-58353333D01*
X152996666Y-58353333D01*
X152901428Y-58400952D01*
X152853809Y-58448571D01*
X152806190Y-58543809D01*
X167062380Y-124024642D02*
X167062380Y-123405595D01*
X167443333Y-123738928D01*
X167443333Y-123596071D01*
X167490952Y-123500833D01*
X167538571Y-123453214D01*
X167633809Y-123405595D01*
X167871904Y-123405595D01*
X167967142Y-123453214D01*
X168014761Y-123500833D01*
X168062380Y-123596071D01*
X168062380Y-123881785D01*
X168014761Y-123977023D01*
X167967142Y-124024642D01*
X167967142Y-122977023D02*
X168014761Y-122929404D01*
X168062380Y-122977023D01*
X168014761Y-123024642D01*
X167967142Y-122977023D01*
X168062380Y-122977023D01*
X167062380Y-122596071D02*
X167062380Y-121977023D01*
X167443333Y-122310357D01*
X167443333Y-122167500D01*
X167490952Y-122072261D01*
X167538571Y-122024642D01*
X167633809Y-121977023D01*
X167871904Y-121977023D01*
X167967142Y-122024642D01*
X168014761Y-122072261D01*
X168062380Y-122167500D01*
X168062380Y-122453214D01*
X168014761Y-122548452D01*
X167967142Y-122596071D01*
X167062380Y-120929404D02*
X168062380Y-120596071D01*
X167062380Y-120262738D01*
X132606071Y-98512380D02*
X132796547Y-98512380D01*
X132891785Y-98560000D01*
X132987023Y-98655238D01*
X133034642Y-98845714D01*
X133034642Y-99179047D01*
X132987023Y-99369523D01*
X132891785Y-99464761D01*
X132796547Y-99512380D01*
X132606071Y-99512380D01*
X132510833Y-99464761D01*
X132415595Y-99369523D01*
X132367976Y-99179047D01*
X132367976Y-98845714D01*
X132415595Y-98655238D01*
X132510833Y-98560000D01*
X132606071Y-98512380D01*
X133463214Y-98512380D02*
X133463214Y-99321904D01*
X133510833Y-99417142D01*
X133558452Y-99464761D01*
X133653690Y-99512380D01*
X133844166Y-99512380D01*
X133939404Y-99464761D01*
X133987023Y-99417142D01*
X134034642Y-99321904D01*
X134034642Y-98512380D01*
X134367976Y-98512380D02*
X134939404Y-98512380D01*
X134653690Y-99512380D02*
X134653690Y-98512380D01*
X161200000Y-58972380D02*
X161200000Y-57972380D01*
X161866666Y-57972380D02*
X162057142Y-57972380D01*
X162152380Y-58020000D01*
X162247619Y-58115238D01*
X162295238Y-58305714D01*
X162295238Y-58639047D01*
X162247619Y-58829523D01*
X162152380Y-58924761D01*
X162057142Y-58972380D01*
X161866666Y-58972380D01*
X161771428Y-58924761D01*
X161676190Y-58829523D01*
X161628571Y-58639047D01*
X161628571Y-58305714D01*
X161676190Y-58115238D01*
X161771428Y-58020000D01*
X161866666Y-57972380D01*
X162866666Y-58400952D02*
X162771428Y-58353333D01*
X162723809Y-58305714D01*
X162676190Y-58210476D01*
X162676190Y-58162857D01*
X162723809Y-58067619D01*
X162771428Y-58020000D01*
X162866666Y-57972380D01*
X163057142Y-57972380D01*
X163152380Y-58020000D01*
X163200000Y-58067619D01*
X163247619Y-58162857D01*
X163247619Y-58210476D01*
X163200000Y-58305714D01*
X163152380Y-58353333D01*
X163057142Y-58400952D01*
X162866666Y-58400952D01*
X162771428Y-58448571D01*
X162723809Y-58496190D01*
X162676190Y-58591428D01*
X162676190Y-58781904D01*
X162723809Y-58877142D01*
X162771428Y-58924761D01*
X162866666Y-58972380D01*
X163057142Y-58972380D01*
X163152380Y-58924761D01*
X163200000Y-58877142D01*
X163247619Y-58781904D01*
X163247619Y-58591428D01*
X163200000Y-58496190D01*
X163152380Y-58448571D01*
X163057142Y-58400952D01*
X146790000Y-124834166D02*
X146742380Y-124929404D01*
X146742380Y-125072261D01*
X146790000Y-125215119D01*
X146885238Y-125310357D01*
X146980476Y-125357976D01*
X147170952Y-125405595D01*
X147313809Y-125405595D01*
X147504285Y-125357976D01*
X147599523Y-125310357D01*
X147694761Y-125215119D01*
X147742380Y-125072261D01*
X147742380Y-124977023D01*
X147694761Y-124834166D01*
X147647142Y-124786547D01*
X147313809Y-124786547D01*
X147313809Y-124977023D01*
X147742380Y-124357976D02*
X146742380Y-124357976D01*
X146742380Y-123977023D01*
X146790000Y-123881785D01*
X146837619Y-123834166D01*
X146932857Y-123786547D01*
X147075714Y-123786547D01*
X147170952Y-123834166D01*
X147218571Y-123881785D01*
X147266190Y-123977023D01*
X147266190Y-124357976D01*
X147742380Y-123357976D02*
X146742380Y-123357976D01*
X146742380Y-122691309D02*
X146742380Y-122500833D01*
X146790000Y-122405595D01*
X146885238Y-122310357D01*
X147075714Y-122262738D01*
X147409047Y-122262738D01*
X147599523Y-122310357D01*
X147694761Y-122405595D01*
X147742380Y-122500833D01*
X147742380Y-122691309D01*
X147694761Y-122786547D01*
X147599523Y-122881785D01*
X147409047Y-122929404D01*
X147075714Y-122929404D01*
X146885238Y-122881785D01*
X146790000Y-122786547D01*
X146742380Y-122691309D01*
X147742380Y-121310357D02*
X147742380Y-121881785D01*
X147742380Y-121596071D02*
X146742380Y-121596071D01*
X146885238Y-121691309D01*
X146980476Y-121786547D01*
X147028095Y-121881785D01*
X146742380Y-120691309D02*
X146742380Y-120596071D01*
X146790000Y-120500833D01*
X146837619Y-120453214D01*
X146932857Y-120405595D01*
X147123333Y-120357976D01*
X147361428Y-120357976D01*
X147551904Y-120405595D01*
X147647142Y-120453214D01*
X147694761Y-120500833D01*
X147742380Y-120596071D01*
X147742380Y-120691309D01*
X147694761Y-120786547D01*
X147647142Y-120834166D01*
X147551904Y-120881785D01*
X147361428Y-120929404D01*
X147123333Y-120929404D01*
X146932857Y-120881785D01*
X146837619Y-120834166D01*
X146790000Y-120786547D01*
X146742380Y-120691309D01*
X136630000Y-124834166D02*
X136582380Y-124929404D01*
X136582380Y-125072261D01*
X136630000Y-125215119D01*
X136725238Y-125310357D01*
X136820476Y-125357976D01*
X137010952Y-125405595D01*
X137153809Y-125405595D01*
X137344285Y-125357976D01*
X137439523Y-125310357D01*
X137534761Y-125215119D01*
X137582380Y-125072261D01*
X137582380Y-124977023D01*
X137534761Y-124834166D01*
X137487142Y-124786547D01*
X137153809Y-124786547D01*
X137153809Y-124977023D01*
X137582380Y-124357976D02*
X136582380Y-124357976D01*
X136582380Y-123977023D01*
X136630000Y-123881785D01*
X136677619Y-123834166D01*
X136772857Y-123786547D01*
X136915714Y-123786547D01*
X137010952Y-123834166D01*
X137058571Y-123881785D01*
X137106190Y-123977023D01*
X137106190Y-124357976D01*
X137582380Y-123357976D02*
X136582380Y-123357976D01*
X136582380Y-122691309D02*
X136582380Y-122500833D01*
X136630000Y-122405595D01*
X136725238Y-122310357D01*
X136915714Y-122262738D01*
X137249047Y-122262738D01*
X137439523Y-122310357D01*
X137534761Y-122405595D01*
X137582380Y-122500833D01*
X137582380Y-122691309D01*
X137534761Y-122786547D01*
X137439523Y-122881785D01*
X137249047Y-122929404D01*
X136915714Y-122929404D01*
X136725238Y-122881785D01*
X136630000Y-122786547D01*
X136582380Y-122691309D01*
X137582380Y-121310357D02*
X137582380Y-121881785D01*
X137582380Y-121596071D02*
X136582380Y-121596071D01*
X136725238Y-121691309D01*
X136820476Y-121786547D01*
X136868095Y-121881785D01*
X137010952Y-120738928D02*
X136963333Y-120834166D01*
X136915714Y-120881785D01*
X136820476Y-120929404D01*
X136772857Y-120929404D01*
X136677619Y-120881785D01*
X136630000Y-120834166D01*
X136582380Y-120738928D01*
X136582380Y-120548452D01*
X136630000Y-120453214D01*
X136677619Y-120405595D01*
X136772857Y-120357976D01*
X136820476Y-120357976D01*
X136915714Y-120405595D01*
X136963333Y-120453214D01*
X137010952Y-120548452D01*
X137010952Y-120738928D01*
X137058571Y-120834166D01*
X137106190Y-120881785D01*
X137201428Y-120929404D01*
X137391904Y-120929404D01*
X137487142Y-120881785D01*
X137534761Y-120834166D01*
X137582380Y-120738928D01*
X137582380Y-120548452D01*
X137534761Y-120453214D01*
X137487142Y-120405595D01*
X137391904Y-120357976D01*
X137201428Y-120357976D01*
X137106190Y-120405595D01*
X137058571Y-120453214D01*
X137010952Y-120548452D01*
X149330000Y-123881785D02*
X149282380Y-123977023D01*
X149282380Y-124119880D01*
X149330000Y-124262738D01*
X149425238Y-124357976D01*
X149520476Y-124405595D01*
X149710952Y-124453214D01*
X149853809Y-124453214D01*
X150044285Y-124405595D01*
X150139523Y-124357976D01*
X150234761Y-124262738D01*
X150282380Y-124119880D01*
X150282380Y-124024642D01*
X150234761Y-123881785D01*
X150187142Y-123834166D01*
X149853809Y-123834166D01*
X149853809Y-124024642D01*
X150282380Y-123405595D02*
X149282380Y-123405595D01*
X149282380Y-123024642D01*
X149330000Y-122929404D01*
X149377619Y-122881785D01*
X149472857Y-122834166D01*
X149615714Y-122834166D01*
X149710952Y-122881785D01*
X149758571Y-122929404D01*
X149806190Y-123024642D01*
X149806190Y-123405595D01*
X150282380Y-122405595D02*
X149282380Y-122405595D01*
X149282380Y-121738928D02*
X149282380Y-121548452D01*
X149330000Y-121453214D01*
X149425238Y-121357976D01*
X149615714Y-121310357D01*
X149949047Y-121310357D01*
X150139523Y-121357976D01*
X150234761Y-121453214D01*
X150282380Y-121548452D01*
X150282380Y-121738928D01*
X150234761Y-121834166D01*
X150139523Y-121929404D01*
X149949047Y-121977023D01*
X149615714Y-121977023D01*
X149425238Y-121929404D01*
X149330000Y-121834166D01*
X149282380Y-121738928D01*
X150282380Y-120834166D02*
X150282380Y-120643690D01*
X150234761Y-120548452D01*
X150187142Y-120500833D01*
X150044285Y-120405595D01*
X149853809Y-120357976D01*
X149472857Y-120357976D01*
X149377619Y-120405595D01*
X149330000Y-120453214D01*
X149282380Y-120548452D01*
X149282380Y-120738928D01*
X149330000Y-120834166D01*
X149377619Y-120881785D01*
X149472857Y-120929404D01*
X149710952Y-120929404D01*
X149806190Y-120881785D01*
X149853809Y-120834166D01*
X149901428Y-120738928D01*
X149901428Y-120548452D01*
X149853809Y-120453214D01*
X149806190Y-120405595D01*
X149710952Y-120357976D01*
X161982380Y-124024642D02*
X161982380Y-123405595D01*
X162363333Y-123738928D01*
X162363333Y-123596071D01*
X162410952Y-123500833D01*
X162458571Y-123453214D01*
X162553809Y-123405595D01*
X162791904Y-123405595D01*
X162887142Y-123453214D01*
X162934761Y-123500833D01*
X162982380Y-123596071D01*
X162982380Y-123881785D01*
X162934761Y-123977023D01*
X162887142Y-124024642D01*
X162887142Y-122977023D02*
X162934761Y-122929404D01*
X162982380Y-122977023D01*
X162934761Y-123024642D01*
X162887142Y-122977023D01*
X162982380Y-122977023D01*
X161982380Y-122596071D02*
X161982380Y-121977023D01*
X162363333Y-122310357D01*
X162363333Y-122167500D01*
X162410952Y-122072261D01*
X162458571Y-122024642D01*
X162553809Y-121977023D01*
X162791904Y-121977023D01*
X162887142Y-122024642D01*
X162934761Y-122072261D01*
X162982380Y-122167500D01*
X162982380Y-122453214D01*
X162934761Y-122548452D01*
X162887142Y-122596071D01*
X161982380Y-120929404D02*
X162982380Y-120596071D01*
X161982380Y-120262738D01*
X136370000Y-58972380D02*
X136370000Y-57972380D01*
X137036666Y-57972380D02*
X137227142Y-57972380D01*
X137322380Y-58020000D01*
X137417619Y-58115238D01*
X137465238Y-58305714D01*
X137465238Y-58639047D01*
X137417619Y-58829523D01*
X137322380Y-58924761D01*
X137227142Y-58972380D01*
X137036666Y-58972380D01*
X136941428Y-58924761D01*
X136846190Y-58829523D01*
X136798571Y-58639047D01*
X136798571Y-58305714D01*
X136846190Y-58115238D01*
X136941428Y-58020000D01*
X137036666Y-57972380D01*
X137798571Y-57972380D02*
X138417619Y-57972380D01*
X138084285Y-58353333D01*
X138227142Y-58353333D01*
X138322380Y-58400952D01*
X138370000Y-58448571D01*
X138417619Y-58543809D01*
X138417619Y-58781904D01*
X138370000Y-58877142D01*
X138322380Y-58924761D01*
X138227142Y-58972380D01*
X137941428Y-58972380D01*
X137846190Y-58924761D01*
X137798571Y-58877142D01*
X159490000Y-122453214D02*
X159442380Y-122548452D01*
X159442380Y-122691309D01*
X159490000Y-122834166D01*
X159585238Y-122929404D01*
X159680476Y-122977023D01*
X159870952Y-123024642D01*
X160013809Y-123024642D01*
X160204285Y-122977023D01*
X160299523Y-122929404D01*
X160394761Y-122834166D01*
X160442380Y-122691309D01*
X160442380Y-122596071D01*
X160394761Y-122453214D01*
X160347142Y-122405595D01*
X160013809Y-122405595D01*
X160013809Y-122596071D01*
X160442380Y-121977023D02*
X159442380Y-121977023D01*
X160442380Y-121405595D01*
X159442380Y-121405595D01*
X160442380Y-120929404D02*
X159442380Y-120929404D01*
X159442380Y-120691309D01*
X159490000Y-120548452D01*
X159585238Y-120453214D01*
X159680476Y-120405595D01*
X159870952Y-120357976D01*
X160013809Y-120357976D01*
X160204285Y-120405595D01*
X160299523Y-120453214D01*
X160394761Y-120548452D01*
X160442380Y-120691309D01*
X160442380Y-120929404D01*
X141210000Y-58972380D02*
X141210000Y-57972380D01*
X141876666Y-57972380D02*
X142067142Y-57972380D01*
X142162380Y-58020000D01*
X142257619Y-58115238D01*
X142305238Y-58305714D01*
X142305238Y-58639047D01*
X142257619Y-58829523D01*
X142162380Y-58924761D01*
X142067142Y-58972380D01*
X141876666Y-58972380D01*
X141781428Y-58924761D01*
X141686190Y-58829523D01*
X141638571Y-58639047D01*
X141638571Y-58305714D01*
X141686190Y-58115238D01*
X141781428Y-58020000D01*
X141876666Y-57972380D01*
X143162380Y-58305714D02*
X143162380Y-58972380D01*
X142924285Y-57924761D02*
X142686190Y-58639047D01*
X143305238Y-58639047D01*
%TO.C,U1*%
X125547455Y-98115501D02*
X125547455Y-98591770D01*
X124547290Y-98591770D01*
X124547290Y-97877366D02*
X124547290Y-97210590D01*
X125547455Y-97639232D01*
X124975932Y-96686694D02*
X124928305Y-96781947D01*
X124880678Y-96829574D01*
X124785425Y-96877201D01*
X124737798Y-96877201D01*
X124642544Y-96829574D01*
X124594917Y-96781947D01*
X124547290Y-96686694D01*
X124547290Y-96496186D01*
X124594917Y-96400932D01*
X124642544Y-96353305D01*
X124737798Y-96305678D01*
X124785425Y-96305678D01*
X124880678Y-96353305D01*
X124928305Y-96400932D01*
X124975932Y-96496186D01*
X124975932Y-96686694D01*
X125023559Y-96781947D01*
X125071186Y-96829574D01*
X125166440Y-96877201D01*
X125356947Y-96877201D01*
X125452201Y-96829574D01*
X125499828Y-96781947D01*
X125547455Y-96686694D01*
X125547455Y-96496186D01*
X125499828Y-96400932D01*
X125452201Y-96353305D01*
X125356947Y-96305678D01*
X125166440Y-96305678D01*
X125071186Y-96353305D01*
X125023559Y-96400932D01*
X124975932Y-96496186D01*
X124547290Y-95686529D02*
X124547290Y-95591275D01*
X124594917Y-95496021D01*
X124642544Y-95448394D01*
X124737798Y-95400767D01*
X124928305Y-95353140D01*
X125166440Y-95353140D01*
X125356947Y-95400767D01*
X125452201Y-95448394D01*
X125499828Y-95496021D01*
X125547455Y-95591275D01*
X125547455Y-95686529D01*
X125499828Y-95781782D01*
X125452201Y-95829409D01*
X125356947Y-95877036D01*
X125166440Y-95924663D01*
X124928305Y-95924663D01*
X124737798Y-95877036D01*
X124642544Y-95829409D01*
X124594917Y-95781782D01*
X124547290Y-95686529D01*
X124547290Y-94448229D02*
X124547290Y-94924498D01*
X125023559Y-94972125D01*
X124975932Y-94924498D01*
X124928305Y-94829244D01*
X124928305Y-94591110D01*
X124975932Y-94495856D01*
X125023559Y-94448229D01*
X125118813Y-94400602D01*
X125356947Y-94400602D01*
X125452201Y-94448229D01*
X125499828Y-94495856D01*
X125547455Y-94591110D01*
X125547455Y-94829244D01*
X125499828Y-94924498D01*
X125452201Y-94972125D01*
%TO.C,Q1*%
X176442619Y-80740238D02*
X176395000Y-80835476D01*
X176299761Y-80930714D01*
X176156904Y-81073571D01*
X176109285Y-81168809D01*
X176109285Y-81264047D01*
X176347380Y-81216428D02*
X176299761Y-81311666D01*
X176204523Y-81406904D01*
X176014047Y-81454523D01*
X175680714Y-81454523D01*
X175490238Y-81406904D01*
X175395000Y-81311666D01*
X175347380Y-81216428D01*
X175347380Y-81025952D01*
X175395000Y-80930714D01*
X175490238Y-80835476D01*
X175680714Y-80787857D01*
X176014047Y-80787857D01*
X176204523Y-80835476D01*
X176299761Y-80930714D01*
X176347380Y-81025952D01*
X176347380Y-81216428D01*
X176347380Y-79835476D02*
X176347380Y-80406904D01*
X176347380Y-80121190D02*
X175347380Y-80121190D01*
X175490238Y-80216428D01*
X175585476Y-80311666D01*
X175633095Y-80406904D01*
X177887380Y-83573571D02*
X177887380Y-83002142D01*
X178887380Y-83287857D02*
X177887380Y-83287857D01*
X178887380Y-82668809D02*
X177887380Y-82668809D01*
X178887380Y-82192619D02*
X177887380Y-82192619D01*
X177887380Y-81811666D01*
X177935000Y-81716428D01*
X177982619Y-81668809D01*
X178077857Y-81621190D01*
X178220714Y-81621190D01*
X178315952Y-81668809D01*
X178363571Y-81716428D01*
X178411190Y-81811666D01*
X178411190Y-82192619D01*
X177982619Y-81240238D02*
X177935000Y-81192619D01*
X177887380Y-81097380D01*
X177887380Y-80859285D01*
X177935000Y-80764047D01*
X177982619Y-80716428D01*
X178077857Y-80668809D01*
X178173095Y-80668809D01*
X178315952Y-80716428D01*
X178887380Y-81287857D01*
X178887380Y-80668809D01*
X178887380Y-80192619D02*
X178887380Y-80002142D01*
X178839761Y-79906904D01*
X178792142Y-79859285D01*
X178649285Y-79764047D01*
X178458809Y-79716428D01*
X178077857Y-79716428D01*
X177982619Y-79764047D01*
X177935000Y-79811666D01*
X177887380Y-79906904D01*
X177887380Y-80097380D01*
X177935000Y-80192619D01*
X177982619Y-80240238D01*
X178077857Y-80287857D01*
X178315952Y-80287857D01*
X178411190Y-80240238D01*
X178458809Y-80192619D01*
X178506428Y-80097380D01*
X178506428Y-79906904D01*
X178458809Y-79811666D01*
X178411190Y-79764047D01*
X178315952Y-79716428D01*
X177887380Y-78811666D02*
X177887380Y-79287857D01*
X178363571Y-79335476D01*
X178315952Y-79287857D01*
X178268333Y-79192619D01*
X178268333Y-78954523D01*
X178315952Y-78859285D01*
X178363571Y-78811666D01*
X178458809Y-78764047D01*
X178696904Y-78764047D01*
X178792142Y-78811666D01*
X178839761Y-78859285D01*
X178887380Y-78954523D01*
X178887380Y-79192619D01*
X178839761Y-79287857D01*
X178792142Y-79335476D01*
X177887380Y-77859285D02*
X177887380Y-78335476D01*
X178363571Y-78383095D01*
X178315952Y-78335476D01*
X178268333Y-78240238D01*
X178268333Y-78002142D01*
X178315952Y-77906904D01*
X178363571Y-77859285D01*
X178458809Y-77811666D01*
X178696904Y-77811666D01*
X178792142Y-77859285D01*
X178839761Y-77906904D01*
X178887380Y-78002142D01*
X178887380Y-78240238D01*
X178839761Y-78335476D01*
X178792142Y-78383095D01*
%TO.C,JN4Dba06*%
X171535714Y-72452380D02*
X171535714Y-73166666D01*
X171488095Y-73309523D01*
X171392857Y-73404761D01*
X171250000Y-73452380D01*
X171154761Y-73452380D01*
X172011904Y-73452380D02*
X172011904Y-72452380D01*
X172583333Y-73452380D01*
X172583333Y-72452380D01*
X173488095Y-72785714D02*
X173488095Y-73452380D01*
X173250000Y-72404761D02*
X173011904Y-73119047D01*
X173630952Y-73119047D01*
X174011904Y-73452380D02*
X174011904Y-72452380D01*
X174250000Y-72452380D01*
X174392857Y-72500000D01*
X174488095Y-72595238D01*
X174535714Y-72690476D01*
X174583333Y-72880952D01*
X174583333Y-73023809D01*
X174535714Y-73214285D01*
X174488095Y-73309523D01*
X174392857Y-73404761D01*
X174250000Y-73452380D01*
X174011904Y-73452380D01*
X175011904Y-73452380D02*
X175011904Y-72452380D01*
X175011904Y-72833333D02*
X175107142Y-72785714D01*
X175297619Y-72785714D01*
X175392857Y-72833333D01*
X175440476Y-72880952D01*
X175488095Y-72976190D01*
X175488095Y-73261904D01*
X175440476Y-73357142D01*
X175392857Y-73404761D01*
X175297619Y-73452380D01*
X175107142Y-73452380D01*
X175011904Y-73404761D01*
X176345238Y-73452380D02*
X176345238Y-72928571D01*
X176297619Y-72833333D01*
X176202380Y-72785714D01*
X176011904Y-72785714D01*
X175916666Y-72833333D01*
X176345238Y-73404761D02*
X176250000Y-73452380D01*
X176011904Y-73452380D01*
X175916666Y-73404761D01*
X175869047Y-73309523D01*
X175869047Y-73214285D01*
X175916666Y-73119047D01*
X176011904Y-73071428D01*
X176250000Y-73071428D01*
X176345238Y-73023809D01*
X177011904Y-72452380D02*
X177107142Y-72452380D01*
X177202380Y-72500000D01*
X177250000Y-72547619D01*
X177297619Y-72642857D01*
X177345238Y-72833333D01*
X177345238Y-73071428D01*
X177297619Y-73261904D01*
X177250000Y-73357142D01*
X177202380Y-73404761D01*
X177107142Y-73452380D01*
X177011904Y-73452380D01*
X176916666Y-73404761D01*
X176869047Y-73357142D01*
X176821428Y-73261904D01*
X176773809Y-73071428D01*
X176773809Y-72833333D01*
X176821428Y-72642857D01*
X176869047Y-72547619D01*
X176916666Y-72500000D01*
X177011904Y-72452380D01*
X178202380Y-72452380D02*
X178011904Y-72452380D01*
X177916666Y-72500000D01*
X177869047Y-72547619D01*
X177773809Y-72690476D01*
X177726190Y-72880952D01*
X177726190Y-73261904D01*
X177773809Y-73357142D01*
X177821428Y-73404761D01*
X177916666Y-73452380D01*
X178107142Y-73452380D01*
X178202380Y-73404761D01*
X178250000Y-73357142D01*
X178297619Y-73261904D01*
X178297619Y-73023809D01*
X178250000Y-72928571D01*
X178202380Y-72880952D01*
X178107142Y-72833333D01*
X177916666Y-72833333D01*
X177821428Y-72880952D01*
X177773809Y-72928571D01*
X177726190Y-73023809D01*
%TO.C,C1*%
X149083333Y-106357142D02*
X149035714Y-106404761D01*
X148892857Y-106452380D01*
X148797619Y-106452380D01*
X148654761Y-106404761D01*
X148559523Y-106309523D01*
X148511904Y-106214285D01*
X148464285Y-106023809D01*
X148464285Y-105880952D01*
X148511904Y-105690476D01*
X148559523Y-105595238D01*
X148654761Y-105500000D01*
X148797619Y-105452380D01*
X148892857Y-105452380D01*
X149035714Y-105500000D01*
X149083333Y-105547619D01*
X150035714Y-106452380D02*
X149464285Y-106452380D01*
X149750000Y-106452380D02*
X149750000Y-105452380D01*
X149654761Y-105595238D01*
X149559523Y-105690476D01*
X149464285Y-105738095D01*
X151726190Y-114547619D02*
X151773809Y-114500000D01*
X151869047Y-114452380D01*
X152107142Y-114452380D01*
X152202380Y-114500000D01*
X152250000Y-114547619D01*
X152297619Y-114642857D01*
X152297619Y-114738095D01*
X152250000Y-114880952D01*
X151678571Y-115452380D01*
X152297619Y-115452380D01*
X152678571Y-114547619D02*
X152726190Y-114500000D01*
X152821428Y-114452380D01*
X153059523Y-114452380D01*
X153154761Y-114500000D01*
X153202380Y-114547619D01*
X153250000Y-114642857D01*
X153250000Y-114738095D01*
X153202380Y-114880952D01*
X152630952Y-115452380D01*
X153250000Y-115452380D01*
X154869047Y-114785714D02*
X154869047Y-115452380D01*
X154440476Y-114785714D02*
X154440476Y-115309523D01*
X154488095Y-115404761D01*
X154583333Y-115452380D01*
X154726190Y-115452380D01*
X154821428Y-115404761D01*
X154869047Y-115357142D01*
X155678571Y-114928571D02*
X155345238Y-114928571D01*
X155345238Y-115452380D02*
X155345238Y-114452380D01*
X155821428Y-114452380D01*
%TO.C,J4*%
X112696666Y-59232380D02*
X112696666Y-59946666D01*
X112649047Y-60089523D01*
X112553809Y-60184761D01*
X112410952Y-60232380D01*
X112315714Y-60232380D01*
X113601428Y-59565714D02*
X113601428Y-60232380D01*
X113363333Y-59184761D02*
X113125238Y-59899047D01*
X113744285Y-59899047D01*
X112601428Y-120692380D02*
X112268095Y-120216190D01*
X112030000Y-120692380D02*
X112030000Y-119692380D01*
X112410952Y-119692380D01*
X112506190Y-119740000D01*
X112553809Y-119787619D01*
X112601428Y-119882857D01*
X112601428Y-120025714D01*
X112553809Y-120120952D01*
X112506190Y-120168571D01*
X112410952Y-120216190D01*
X112030000Y-120216190D01*
X113030000Y-120692380D02*
X113030000Y-119692380D01*
X113410952Y-119692380D01*
X113506190Y-119740000D01*
X113553809Y-119787619D01*
X113601428Y-119882857D01*
X113601428Y-120025714D01*
X113553809Y-120120952D01*
X113506190Y-120168571D01*
X113410952Y-120216190D01*
X113030000Y-120216190D01*
X114030000Y-120692380D02*
X114030000Y-119692380D01*
%TO.C,C4*%
X142053333Y-73677142D02*
X142005714Y-73724761D01*
X141862857Y-73772380D01*
X141767619Y-73772380D01*
X141624761Y-73724761D01*
X141529523Y-73629523D01*
X141481904Y-73534285D01*
X141434285Y-73343809D01*
X141434285Y-73200952D01*
X141481904Y-73010476D01*
X141529523Y-72915238D01*
X141624761Y-72820000D01*
X141767619Y-72772380D01*
X141862857Y-72772380D01*
X142005714Y-72820000D01*
X142053333Y-72867619D01*
X142910476Y-73105714D02*
X142910476Y-73772380D01*
X142672380Y-72724761D02*
X142434285Y-73439047D01*
X143053333Y-73439047D01*
X139720000Y-82867619D02*
X139767619Y-82820000D01*
X139862857Y-82772380D01*
X140100952Y-82772380D01*
X140196190Y-82820000D01*
X140243809Y-82867619D01*
X140291428Y-82962857D01*
X140291428Y-83058095D01*
X140243809Y-83200952D01*
X139672380Y-83772380D01*
X140291428Y-83772380D01*
X140672380Y-82867619D02*
X140720000Y-82820000D01*
X140815238Y-82772380D01*
X141053333Y-82772380D01*
X141148571Y-82820000D01*
X141196190Y-82867619D01*
X141243809Y-82962857D01*
X141243809Y-83058095D01*
X141196190Y-83200952D01*
X140624761Y-83772380D01*
X141243809Y-83772380D01*
X141862857Y-82772380D02*
X141958095Y-82772380D01*
X142053333Y-82820000D01*
X142100952Y-82867619D01*
X142148571Y-82962857D01*
X142196190Y-83153333D01*
X142196190Y-83391428D01*
X142148571Y-83581904D01*
X142100952Y-83677142D01*
X142053333Y-83724761D01*
X141958095Y-83772380D01*
X141862857Y-83772380D01*
X141767619Y-83724761D01*
X141720000Y-83677142D01*
X141672380Y-83581904D01*
X141624761Y-83391428D01*
X141624761Y-83153333D01*
X141672380Y-82962857D01*
X141720000Y-82867619D01*
X141767619Y-82820000D01*
X141862857Y-82772380D01*
X143815238Y-83105714D02*
X143815238Y-83772380D01*
X143386666Y-83105714D02*
X143386666Y-83629523D01*
X143434285Y-83724761D01*
X143529523Y-83772380D01*
X143672380Y-83772380D01*
X143767619Y-83724761D01*
X143815238Y-83677142D01*
X144624761Y-83248571D02*
X144291428Y-83248571D01*
X144291428Y-83772380D02*
X144291428Y-82772380D01*
X144767619Y-82772380D01*
%TO.C,C2*%
X127555933Y-80857142D02*
X127508314Y-80904761D01*
X127365457Y-80952380D01*
X127270219Y-80952380D01*
X127127361Y-80904761D01*
X127032123Y-80809523D01*
X126984504Y-80714285D01*
X126936885Y-80523809D01*
X126936885Y-80380952D01*
X126984504Y-80190476D01*
X127032123Y-80095238D01*
X127127361Y-80000000D01*
X127270219Y-79952380D01*
X127365457Y-79952380D01*
X127508314Y-80000000D01*
X127555933Y-80047619D01*
X127936885Y-80047619D02*
X127984504Y-80000000D01*
X128079742Y-79952380D01*
X128317838Y-79952380D01*
X128413076Y-80000000D01*
X128460695Y-80047619D01*
X128508314Y-80142857D01*
X128508314Y-80238095D01*
X128460695Y-80380952D01*
X127889266Y-80952380D01*
X128508314Y-80952380D01*
X125698790Y-72452380D02*
X125794028Y-72452380D01*
X125889266Y-72500000D01*
X125936885Y-72547619D01*
X125984504Y-72642857D01*
X126032123Y-72833333D01*
X126032123Y-73071428D01*
X125984504Y-73261904D01*
X125936885Y-73357142D01*
X125889266Y-73404761D01*
X125794028Y-73452380D01*
X125698790Y-73452380D01*
X125603552Y-73404761D01*
X125555933Y-73357142D01*
X125508314Y-73261904D01*
X125460695Y-73071428D01*
X125460695Y-72833333D01*
X125508314Y-72642857D01*
X125555933Y-72547619D01*
X125603552Y-72500000D01*
X125698790Y-72452380D01*
X126460695Y-73357142D02*
X126508314Y-73404761D01*
X126460695Y-73452380D01*
X126413076Y-73404761D01*
X126460695Y-73357142D01*
X126460695Y-73452380D01*
X127460695Y-73452380D02*
X126889266Y-73452380D01*
X127174980Y-73452380D02*
X127174980Y-72452380D01*
X127079742Y-72595238D01*
X126984504Y-72690476D01*
X126889266Y-72738095D01*
X129079742Y-72785714D02*
X129079742Y-73452380D01*
X128651171Y-72785714D02*
X128651171Y-73309523D01*
X128698790Y-73404761D01*
X128794028Y-73452380D01*
X128936885Y-73452380D01*
X129032123Y-73404761D01*
X129079742Y-73357142D01*
X129889266Y-72928571D02*
X129555933Y-72928571D01*
X129555933Y-73452380D02*
X129555933Y-72452380D01*
X130032123Y-72452380D01*
%TO.C,J3*%
X182666666Y-89062380D02*
X182666666Y-89776666D01*
X182619047Y-89919523D01*
X182523809Y-90014761D01*
X182380952Y-90062380D01*
X182285714Y-90062380D01*
X183047619Y-89062380D02*
X183666666Y-89062380D01*
X183333333Y-89443333D01*
X183476190Y-89443333D01*
X183571428Y-89490952D01*
X183619047Y-89538571D01*
X183666666Y-89633809D01*
X183666666Y-89871904D01*
X183619047Y-89967142D01*
X183571428Y-90014761D01*
X183476190Y-90062380D01*
X183190476Y-90062380D01*
X183095238Y-90014761D01*
X183047619Y-89967142D01*
X172583333Y-103202380D02*
X172583333Y-102202380D01*
X172916666Y-102916666D01*
X173250000Y-102202380D01*
X173250000Y-103202380D01*
X173678571Y-102916666D02*
X174154761Y-102916666D01*
X173583333Y-103202380D02*
X173916666Y-102202380D01*
X174250000Y-103202380D01*
X174488095Y-102202380D02*
X175154761Y-103202380D01*
X175154761Y-102202380D02*
X174488095Y-103202380D01*
X175964285Y-102535714D02*
X175964285Y-103202380D01*
X175726190Y-102154761D02*
X175488095Y-102869047D01*
X176107142Y-102869047D01*
X176630952Y-102630952D02*
X176535714Y-102583333D01*
X176488095Y-102535714D01*
X176440476Y-102440476D01*
X176440476Y-102392857D01*
X176488095Y-102297619D01*
X176535714Y-102250000D01*
X176630952Y-102202380D01*
X176821428Y-102202380D01*
X176916666Y-102250000D01*
X176964285Y-102297619D01*
X177011904Y-102392857D01*
X177011904Y-102440476D01*
X176964285Y-102535714D01*
X176916666Y-102583333D01*
X176821428Y-102630952D01*
X176630952Y-102630952D01*
X176535714Y-102678571D01*
X176488095Y-102726190D01*
X176440476Y-102821428D01*
X176440476Y-103011904D01*
X176488095Y-103107142D01*
X176535714Y-103154761D01*
X176630952Y-103202380D01*
X176821428Y-103202380D01*
X176916666Y-103154761D01*
X176964285Y-103107142D01*
X177011904Y-103011904D01*
X177011904Y-102821428D01*
X176964285Y-102726190D01*
X176916666Y-102678571D01*
X176821428Y-102630952D01*
X177916666Y-102202380D02*
X177440476Y-102202380D01*
X177392857Y-102678571D01*
X177440476Y-102630952D01*
X177535714Y-102583333D01*
X177773809Y-102583333D01*
X177869047Y-102630952D01*
X177916666Y-102678571D01*
X177964285Y-102773809D01*
X177964285Y-103011904D01*
X177916666Y-103107142D01*
X177869047Y-103154761D01*
X177773809Y-103202380D01*
X177535714Y-103202380D01*
X177440476Y-103154761D01*
X177392857Y-103107142D01*
X178392857Y-103202380D02*
X178392857Y-102202380D01*
X178726190Y-102916666D01*
X179059523Y-102202380D01*
X179059523Y-103202380D01*
X180250000Y-102154761D02*
X179392857Y-103440476D01*
X181154761Y-103202380D02*
X180821428Y-102726190D01*
X180583333Y-103202380D02*
X180583333Y-102202380D01*
X180964285Y-102202380D01*
X181059523Y-102250000D01*
X181107142Y-102297619D01*
X181154761Y-102392857D01*
X181154761Y-102535714D01*
X181107142Y-102630952D01*
X181059523Y-102678571D01*
X180964285Y-102726190D01*
X180583333Y-102726190D01*
X181535714Y-103154761D02*
X181678571Y-103202380D01*
X181916666Y-103202380D01*
X182011904Y-103154761D01*
X182059523Y-103107142D01*
X182107142Y-103011904D01*
X182107142Y-102916666D01*
X182059523Y-102821428D01*
X182011904Y-102773809D01*
X181916666Y-102726190D01*
X181726190Y-102678571D01*
X181630952Y-102630952D01*
X181583333Y-102583333D01*
X181535714Y-102488095D01*
X181535714Y-102392857D01*
X181583333Y-102297619D01*
X181630952Y-102250000D01*
X181726190Y-102202380D01*
X181964285Y-102202380D01*
X182107142Y-102250000D01*
X182964285Y-102535714D02*
X182964285Y-103202380D01*
X182726190Y-102154761D02*
X182488095Y-102869047D01*
X183107142Y-102869047D01*
X183630952Y-102630952D02*
X183535714Y-102583333D01*
X183488095Y-102535714D01*
X183440476Y-102440476D01*
X183440476Y-102392857D01*
X183488095Y-102297619D01*
X183535714Y-102250000D01*
X183630952Y-102202380D01*
X183821428Y-102202380D01*
X183916666Y-102250000D01*
X183964285Y-102297619D01*
X184011904Y-102392857D01*
X184011904Y-102440476D01*
X183964285Y-102535714D01*
X183916666Y-102583333D01*
X183821428Y-102630952D01*
X183630952Y-102630952D01*
X183535714Y-102678571D01*
X183488095Y-102726190D01*
X183440476Y-102821428D01*
X183440476Y-103011904D01*
X183488095Y-103107142D01*
X183535714Y-103154761D01*
X183630952Y-103202380D01*
X183821428Y-103202380D01*
X183916666Y-103154761D01*
X183964285Y-103107142D01*
X184011904Y-103011904D01*
X184011904Y-102821428D01*
X183964285Y-102726190D01*
X183916666Y-102678571D01*
X183821428Y-102630952D01*
X184916666Y-102202380D02*
X184440476Y-102202380D01*
X184392857Y-102678571D01*
X184440476Y-102630952D01*
X184535714Y-102583333D01*
X184773809Y-102583333D01*
X184869047Y-102630952D01*
X184916666Y-102678571D01*
X184964285Y-102773809D01*
X184964285Y-103011904D01*
X184916666Y-103107142D01*
X184869047Y-103154761D01*
X184773809Y-103202380D01*
X184535714Y-103202380D01*
X184440476Y-103154761D01*
X184392857Y-103107142D01*
%TO.C,J1*%
X169852380Y-118468333D02*
X170566666Y-118468333D01*
X170709523Y-118515952D01*
X170804761Y-118611190D01*
X170852380Y-118754047D01*
X170852380Y-118849285D01*
X170852380Y-117468333D02*
X170852380Y-118039761D01*
X170852380Y-117754047D02*
X169852380Y-117754047D01*
X169995238Y-117849285D01*
X170090476Y-117944523D01*
X170138095Y-118039761D01*
X119068571Y-122468333D02*
X119068571Y-122135000D01*
X119592380Y-121992142D02*
X119592380Y-122468333D01*
X118592380Y-122468333D01*
X118592380Y-121992142D01*
X119592380Y-121658809D02*
X118925714Y-121135000D01*
X118925714Y-121658809D02*
X119592380Y-121135000D01*
X118925714Y-120896904D02*
X118925714Y-120515952D01*
X118592380Y-120754047D02*
X119449523Y-120754047D01*
X119544761Y-120706428D01*
X119592380Y-120611190D01*
X119592380Y-120515952D01*
X119592380Y-120182619D02*
X118925714Y-120182619D01*
X119116190Y-120182619D02*
X119020952Y-120135000D01*
X118973333Y-120087380D01*
X118925714Y-119992142D01*
X118925714Y-119896904D01*
X119592380Y-119135000D02*
X119068571Y-119135000D01*
X118973333Y-119182619D01*
X118925714Y-119277857D01*
X118925714Y-119468333D01*
X118973333Y-119563571D01*
X119544761Y-119135000D02*
X119592380Y-119230238D01*
X119592380Y-119468333D01*
X119544761Y-119563571D01*
X119449523Y-119611190D01*
X119354285Y-119611190D01*
X119259047Y-119563571D01*
X119211428Y-119468333D01*
X119211428Y-119230238D01*
X119163809Y-119135000D01*
X119687619Y-118896904D02*
X119687619Y-118135000D01*
X119592380Y-117896904D02*
X118925714Y-117896904D01*
X118592380Y-117896904D02*
X118640000Y-117944523D01*
X118687619Y-117896904D01*
X118640000Y-117849285D01*
X118592380Y-117896904D01*
X118687619Y-117896904D01*
X118925714Y-117420714D02*
X119592380Y-117420714D01*
X119020952Y-117420714D02*
X118973333Y-117373095D01*
X118925714Y-117277857D01*
X118925714Y-117135000D01*
X118973333Y-117039761D01*
X119068571Y-116992142D01*
X119592380Y-116992142D01*
X118925714Y-116515952D02*
X119925714Y-116515952D01*
X118973333Y-116515952D02*
X118925714Y-116420714D01*
X118925714Y-116230238D01*
X118973333Y-116135000D01*
X119020952Y-116087380D01*
X119116190Y-116039761D01*
X119401904Y-116039761D01*
X119497142Y-116087380D01*
X119544761Y-116135000D01*
X119592380Y-116230238D01*
X119592380Y-116420714D01*
X119544761Y-116515952D01*
X118925714Y-115182619D02*
X119592380Y-115182619D01*
X118925714Y-115611190D02*
X119449523Y-115611190D01*
X119544761Y-115563571D01*
X119592380Y-115468333D01*
X119592380Y-115325476D01*
X119544761Y-115230238D01*
X119497142Y-115182619D01*
X118925714Y-114849285D02*
X118925714Y-114468333D01*
X118592380Y-114706428D02*
X119449523Y-114706428D01*
X119544761Y-114658809D01*
X119592380Y-114563571D01*
X119592380Y-114468333D01*
X119544761Y-114182619D02*
X119592380Y-114087380D01*
X119592380Y-113896904D01*
X119544761Y-113801666D01*
X119449523Y-113754047D01*
X119401904Y-113754047D01*
X119306666Y-113801666D01*
X119259047Y-113896904D01*
X119259047Y-114039761D01*
X119211428Y-114135000D01*
X119116190Y-114182619D01*
X119068571Y-114182619D01*
X118973333Y-114135000D01*
X118925714Y-114039761D01*
X118925714Y-113896904D01*
X118973333Y-113801666D01*
%TO.C,JIO-1*%
X137441904Y-57592380D02*
X137441904Y-56592380D01*
X137680000Y-56592380D01*
X137822857Y-56640000D01*
X137918095Y-56735238D01*
X137965714Y-56830476D01*
X138013333Y-57020952D01*
X138013333Y-57163809D01*
X137965714Y-57354285D01*
X137918095Y-57449523D01*
X137822857Y-57544761D01*
X137680000Y-57592380D01*
X137441904Y-57592380D01*
X138441904Y-57592380D02*
X138441904Y-56925714D01*
X138441904Y-56592380D02*
X138394285Y-56640000D01*
X138441904Y-56687619D01*
X138489523Y-56640000D01*
X138441904Y-56592380D01*
X138441904Y-56687619D01*
X139346666Y-56925714D02*
X139346666Y-57735238D01*
X139299047Y-57830476D01*
X139251428Y-57878095D01*
X139156190Y-57925714D01*
X139013333Y-57925714D01*
X138918095Y-57878095D01*
X139346666Y-57544761D02*
X139251428Y-57592380D01*
X139060952Y-57592380D01*
X138965714Y-57544761D01*
X138918095Y-57497142D01*
X138870476Y-57401904D01*
X138870476Y-57116190D01*
X138918095Y-57020952D01*
X138965714Y-56973333D01*
X139060952Y-56925714D01*
X139251428Y-56925714D01*
X139346666Y-56973333D01*
X139822857Y-57592380D02*
X139822857Y-56925714D01*
X139822857Y-56592380D02*
X139775238Y-56640000D01*
X139822857Y-56687619D01*
X139870476Y-56640000D01*
X139822857Y-56592380D01*
X139822857Y-56687619D01*
X140156190Y-56925714D02*
X140537142Y-56925714D01*
X140299047Y-56592380D02*
X140299047Y-57449523D01*
X140346666Y-57544761D01*
X140441904Y-57592380D01*
X140537142Y-57592380D01*
X141299047Y-57592380D02*
X141299047Y-57068571D01*
X141251428Y-56973333D01*
X141156190Y-56925714D01*
X140965714Y-56925714D01*
X140870476Y-56973333D01*
X141299047Y-57544761D02*
X141203809Y-57592380D01*
X140965714Y-57592380D01*
X140870476Y-57544761D01*
X140822857Y-57449523D01*
X140822857Y-57354285D01*
X140870476Y-57259047D01*
X140965714Y-57211428D01*
X141203809Y-57211428D01*
X141299047Y-57163809D01*
X141918095Y-57592380D02*
X141822857Y-57544761D01*
X141775238Y-57449523D01*
X141775238Y-56592380D01*
X143060952Y-57592380D02*
X143060952Y-56592380D01*
X143537142Y-56925714D02*
X143537142Y-57592380D01*
X143537142Y-57020952D02*
X143584761Y-56973333D01*
X143680000Y-56925714D01*
X143822857Y-56925714D01*
X143918095Y-56973333D01*
X143965714Y-57068571D01*
X143965714Y-57592380D01*
X144441904Y-56925714D02*
X144441904Y-57925714D01*
X144441904Y-56973333D02*
X144537142Y-56925714D01*
X144727619Y-56925714D01*
X144822857Y-56973333D01*
X144870476Y-57020952D01*
X144918095Y-57116190D01*
X144918095Y-57401904D01*
X144870476Y-57497142D01*
X144822857Y-57544761D01*
X144727619Y-57592380D01*
X144537142Y-57592380D01*
X144441904Y-57544761D01*
X145775238Y-56925714D02*
X145775238Y-57592380D01*
X145346666Y-56925714D02*
X145346666Y-57449523D01*
X145394285Y-57544761D01*
X145489523Y-57592380D01*
X145632380Y-57592380D01*
X145727619Y-57544761D01*
X145775238Y-57497142D01*
X146108571Y-56925714D02*
X146489523Y-56925714D01*
X146251428Y-56592380D02*
X146251428Y-57449523D01*
X146299047Y-57544761D01*
X146394285Y-57592380D01*
X146489523Y-57592380D01*
X146775238Y-57544761D02*
X146870476Y-57592380D01*
X147060952Y-57592380D01*
X147156190Y-57544761D01*
X147203809Y-57449523D01*
X147203809Y-57401904D01*
X147156190Y-57306666D01*
X147060952Y-57259047D01*
X146918095Y-57259047D01*
X146822857Y-57211428D01*
X146775238Y-57116190D01*
X146775238Y-57068571D01*
X146822857Y-56973333D01*
X146918095Y-56925714D01*
X147060952Y-56925714D01*
X147156190Y-56973333D01*
X148346666Y-56544761D02*
X147489523Y-57830476D01*
X148870476Y-56592380D02*
X149060952Y-56592380D01*
X149156190Y-56640000D01*
X149251428Y-56735238D01*
X149299047Y-56925714D01*
X149299047Y-57259047D01*
X149251428Y-57449523D01*
X149156190Y-57544761D01*
X149060952Y-57592380D01*
X148870476Y-57592380D01*
X148775238Y-57544761D01*
X148680000Y-57449523D01*
X148632380Y-57259047D01*
X148632380Y-56925714D01*
X148680000Y-56735238D01*
X148775238Y-56640000D01*
X148870476Y-56592380D01*
X150156190Y-56925714D02*
X150156190Y-57592380D01*
X149727619Y-56925714D02*
X149727619Y-57449523D01*
X149775238Y-57544761D01*
X149870476Y-57592380D01*
X150013333Y-57592380D01*
X150108571Y-57544761D01*
X150156190Y-57497142D01*
X150489523Y-56925714D02*
X150870476Y-56925714D01*
X150632380Y-56592380D02*
X150632380Y-57449523D01*
X150680000Y-57544761D01*
X150775238Y-57592380D01*
X150870476Y-57592380D01*
X151203809Y-56925714D02*
X151203809Y-57925714D01*
X151203809Y-56973333D02*
X151299047Y-56925714D01*
X151489523Y-56925714D01*
X151584761Y-56973333D01*
X151632380Y-57020952D01*
X151680000Y-57116190D01*
X151680000Y-57401904D01*
X151632380Y-57497142D01*
X151584761Y-57544761D01*
X151489523Y-57592380D01*
X151299047Y-57592380D01*
X151203809Y-57544761D01*
X152537142Y-56925714D02*
X152537142Y-57592380D01*
X152108571Y-56925714D02*
X152108571Y-57449523D01*
X152156190Y-57544761D01*
X152251428Y-57592380D01*
X152394285Y-57592380D01*
X152489523Y-57544761D01*
X152537142Y-57497142D01*
X152870476Y-56925714D02*
X153251428Y-56925714D01*
X153013333Y-56592380D02*
X153013333Y-57449523D01*
X153060952Y-57544761D01*
X153156190Y-57592380D01*
X153251428Y-57592380D01*
X153537142Y-57544761D02*
X153632380Y-57592380D01*
X153822857Y-57592380D01*
X153918095Y-57544761D01*
X153965714Y-57449523D01*
X153965714Y-57401904D01*
X153918095Y-57306666D01*
X153822857Y-57259047D01*
X153680000Y-57259047D01*
X153584761Y-57211428D01*
X153537142Y-57116190D01*
X153537142Y-57068571D01*
X153584761Y-56973333D01*
X153680000Y-56925714D01*
X153822857Y-56925714D01*
X153918095Y-56973333D01*
%TO.C,R1*%
X161833333Y-76082380D02*
X161500000Y-75606190D01*
X161261904Y-76082380D02*
X161261904Y-75082380D01*
X161642857Y-75082380D01*
X161738095Y-75130000D01*
X161785714Y-75177619D01*
X161833333Y-75272857D01*
X161833333Y-75415714D01*
X161785714Y-75510952D01*
X161738095Y-75558571D01*
X161642857Y-75606190D01*
X161261904Y-75606190D01*
X162785714Y-76082380D02*
X162214285Y-76082380D01*
X162500000Y-76082380D02*
X162500000Y-75082380D01*
X162404761Y-75225238D01*
X162309523Y-75320476D01*
X162214285Y-75368095D01*
X158523809Y-79822380D02*
X159142857Y-79822380D01*
X158809523Y-80203333D01*
X158952380Y-80203333D01*
X159047619Y-80250952D01*
X159095238Y-80298571D01*
X159142857Y-80393809D01*
X159142857Y-80631904D01*
X159095238Y-80727142D01*
X159047619Y-80774761D01*
X158952380Y-80822380D01*
X158666666Y-80822380D01*
X158571428Y-80774761D01*
X158523809Y-80727142D01*
X159571428Y-80727142D02*
X159619047Y-80774761D01*
X159571428Y-80822380D01*
X159523809Y-80774761D01*
X159571428Y-80727142D01*
X159571428Y-80822380D01*
X159952380Y-79822380D02*
X160571428Y-79822380D01*
X160238095Y-80203333D01*
X160380952Y-80203333D01*
X160476190Y-80250952D01*
X160523809Y-80298571D01*
X160571428Y-80393809D01*
X160571428Y-80631904D01*
X160523809Y-80727142D01*
X160476190Y-80774761D01*
X160380952Y-80822380D01*
X160095238Y-80822380D01*
X160000000Y-80774761D01*
X159952380Y-80727142D01*
X161952380Y-79822380D02*
X162142857Y-79822380D01*
X162238095Y-79870000D01*
X162333333Y-79965238D01*
X162380952Y-80155714D01*
X162380952Y-80489047D01*
X162333333Y-80679523D01*
X162238095Y-80774761D01*
X162142857Y-80822380D01*
X161952380Y-80822380D01*
X161857142Y-80774761D01*
X161761904Y-80679523D01*
X161714285Y-80489047D01*
X161714285Y-80155714D01*
X161761904Y-79965238D01*
X161857142Y-79870000D01*
X161952380Y-79822380D01*
X162809523Y-80822380D02*
X162809523Y-79822380D01*
X163238095Y-80822380D02*
X163238095Y-80298571D01*
X163190476Y-80203333D01*
X163095238Y-80155714D01*
X162952380Y-80155714D01*
X162857142Y-80203333D01*
X162809523Y-80250952D01*
X163714285Y-80822380D02*
X163714285Y-80155714D01*
X163714285Y-80250952D02*
X163761904Y-80203333D01*
X163857142Y-80155714D01*
X164000000Y-80155714D01*
X164095238Y-80203333D01*
X164142857Y-80298571D01*
X164142857Y-80822380D01*
X164142857Y-80298571D02*
X164190476Y-80203333D01*
X164285714Y-80155714D01*
X164428571Y-80155714D01*
X164523809Y-80203333D01*
X164571428Y-80298571D01*
X164571428Y-80822380D01*
X165000000Y-80774761D02*
X165095238Y-80822380D01*
X165285714Y-80822380D01*
X165380952Y-80774761D01*
X165428571Y-80679523D01*
X165428571Y-80631904D01*
X165380952Y-80536666D01*
X165285714Y-80489047D01*
X165142857Y-80489047D01*
X165047619Y-80441428D01*
X165000000Y-80346190D01*
X165000000Y-80298571D01*
X165047619Y-80203333D01*
X165142857Y-80155714D01*
X165285714Y-80155714D01*
X165380952Y-80203333D01*
%TO.C,C3*%
X156833333Y-85107142D02*
X156785714Y-85154761D01*
X156642857Y-85202380D01*
X156547619Y-85202380D01*
X156404761Y-85154761D01*
X156309523Y-85059523D01*
X156261904Y-84964285D01*
X156214285Y-84773809D01*
X156214285Y-84630952D01*
X156261904Y-84440476D01*
X156309523Y-84345238D01*
X156404761Y-84250000D01*
X156547619Y-84202380D01*
X156642857Y-84202380D01*
X156785714Y-84250000D01*
X156833333Y-84297619D01*
X157166666Y-84202380D02*
X157785714Y-84202380D01*
X157452380Y-84583333D01*
X157595238Y-84583333D01*
X157690476Y-84630952D01*
X157738095Y-84678571D01*
X157785714Y-84773809D01*
X157785714Y-85011904D01*
X157738095Y-85107142D01*
X157690476Y-85154761D01*
X157595238Y-85202380D01*
X157309523Y-85202380D01*
X157214285Y-85154761D01*
X157166666Y-85107142D01*
X158976190Y-88452380D02*
X159071428Y-88452380D01*
X159166666Y-88500000D01*
X159214285Y-88547619D01*
X159261904Y-88642857D01*
X159309523Y-88833333D01*
X159309523Y-89071428D01*
X159261904Y-89261904D01*
X159214285Y-89357142D01*
X159166666Y-89404761D01*
X159071428Y-89452380D01*
X158976190Y-89452380D01*
X158880952Y-89404761D01*
X158833333Y-89357142D01*
X158785714Y-89261904D01*
X158738095Y-89071428D01*
X158738095Y-88833333D01*
X158785714Y-88642857D01*
X158833333Y-88547619D01*
X158880952Y-88500000D01*
X158976190Y-88452380D01*
X159738095Y-89357142D02*
X159785714Y-89404761D01*
X159738095Y-89452380D01*
X159690476Y-89404761D01*
X159738095Y-89357142D01*
X159738095Y-89452380D01*
X160738095Y-89452380D02*
X160166666Y-89452380D01*
X160452380Y-89452380D02*
X160452380Y-88452380D01*
X160357142Y-88595238D01*
X160261904Y-88690476D01*
X160166666Y-88738095D01*
X162357142Y-88785714D02*
X162357142Y-89452380D01*
X161928571Y-88785714D02*
X161928571Y-89309523D01*
X161976190Y-89404761D01*
X162071428Y-89452380D01*
X162214285Y-89452380D01*
X162309523Y-89404761D01*
X162357142Y-89357142D01*
X163166666Y-88928571D02*
X162833333Y-88928571D01*
X162833333Y-89452380D02*
X162833333Y-88452380D01*
X163309523Y-88452380D01*
%TO.C,JV1*%
X179138095Y-104192380D02*
X179138095Y-104906666D01*
X179090476Y-105049523D01*
X178995238Y-105144761D01*
X178852380Y-105192380D01*
X178757142Y-105192380D01*
X179471428Y-104192380D02*
X179804761Y-105192380D01*
X180138095Y-104192380D01*
X180995238Y-105192380D02*
X180423809Y-105192380D01*
X180709523Y-105192380D02*
X180709523Y-104192380D01*
X180614285Y-104335238D01*
X180519047Y-104430476D01*
X180423809Y-104478095D01*
X174007142Y-116347142D02*
X173959523Y-116394761D01*
X173816666Y-116442380D01*
X173721428Y-116442380D01*
X173578571Y-116394761D01*
X173483333Y-116299523D01*
X173435714Y-116204285D01*
X173388095Y-116013809D01*
X173388095Y-115870952D01*
X173435714Y-115680476D01*
X173483333Y-115585238D01*
X173578571Y-115490000D01*
X173721428Y-115442380D01*
X173816666Y-115442380D01*
X173959523Y-115490000D01*
X174007142Y-115537619D01*
X174578571Y-116442380D02*
X174483333Y-116394761D01*
X174435714Y-116347142D01*
X174388095Y-116251904D01*
X174388095Y-115966190D01*
X174435714Y-115870952D01*
X174483333Y-115823333D01*
X174578571Y-115775714D01*
X174721428Y-115775714D01*
X174816666Y-115823333D01*
X174864285Y-115870952D01*
X174911904Y-115966190D01*
X174911904Y-116251904D01*
X174864285Y-116347142D01*
X174816666Y-116394761D01*
X174721428Y-116442380D01*
X174578571Y-116442380D01*
X175340476Y-115775714D02*
X175340476Y-116442380D01*
X175340476Y-115870952D02*
X175388095Y-115823333D01*
X175483333Y-115775714D01*
X175626190Y-115775714D01*
X175721428Y-115823333D01*
X175769047Y-115918571D01*
X175769047Y-116442380D01*
X176245238Y-115775714D02*
X176245238Y-116442380D01*
X176245238Y-115870952D02*
X176292857Y-115823333D01*
X176388095Y-115775714D01*
X176530952Y-115775714D01*
X176626190Y-115823333D01*
X176673809Y-115918571D01*
X176673809Y-116442380D01*
X176911904Y-116537619D02*
X177673809Y-116537619D01*
X177911904Y-116442380D02*
X177911904Y-115442380D01*
X177911904Y-115823333D02*
X178007142Y-115775714D01*
X178197619Y-115775714D01*
X178292857Y-115823333D01*
X178340476Y-115870952D01*
X178388095Y-115966190D01*
X178388095Y-116251904D01*
X178340476Y-116347142D01*
X178292857Y-116394761D01*
X178197619Y-116442380D01*
X178007142Y-116442380D01*
X177911904Y-116394761D01*
X179245238Y-116442380D02*
X179245238Y-115918571D01*
X179197619Y-115823333D01*
X179102380Y-115775714D01*
X178911904Y-115775714D01*
X178816666Y-115823333D01*
X179245238Y-116394761D02*
X179150000Y-116442380D01*
X178911904Y-116442380D01*
X178816666Y-116394761D01*
X178769047Y-116299523D01*
X178769047Y-116204285D01*
X178816666Y-116109047D01*
X178911904Y-116061428D01*
X179150000Y-116061428D01*
X179245238Y-116013809D01*
X179721428Y-116442380D02*
X179721428Y-115775714D01*
X179721428Y-115966190D02*
X179769047Y-115870952D01*
X179816666Y-115823333D01*
X179911904Y-115775714D01*
X180007142Y-115775714D01*
X180340476Y-116442380D02*
X180340476Y-115775714D01*
X180340476Y-115966190D02*
X180388095Y-115870952D01*
X180435714Y-115823333D01*
X180530952Y-115775714D01*
X180626190Y-115775714D01*
X181340476Y-116394761D02*
X181245238Y-116442380D01*
X181054761Y-116442380D01*
X180959523Y-116394761D01*
X180911904Y-116299523D01*
X180911904Y-115918571D01*
X180959523Y-115823333D01*
X181054761Y-115775714D01*
X181245238Y-115775714D01*
X181340476Y-115823333D01*
X181388095Y-115918571D01*
X181388095Y-116013809D01*
X180911904Y-116109047D01*
X181959523Y-116442380D02*
X181864285Y-116394761D01*
X181816666Y-116299523D01*
X181816666Y-115442380D01*
%TO.C,J2*%
X141666666Y-89062380D02*
X141666666Y-89776666D01*
X141619047Y-89919523D01*
X141523809Y-90014761D01*
X141380952Y-90062380D01*
X141285714Y-90062380D01*
X142095238Y-89157619D02*
X142142857Y-89110000D01*
X142238095Y-89062380D01*
X142476190Y-89062380D01*
X142571428Y-89110000D01*
X142619047Y-89157619D01*
X142666666Y-89252857D01*
X142666666Y-89348095D01*
X142619047Y-89490952D01*
X142047619Y-90062380D01*
X142666666Y-90062380D01*
X137071428Y-103222380D02*
X137071428Y-102222380D01*
X137404761Y-102936666D01*
X137738095Y-102222380D01*
X137738095Y-103222380D01*
X138166666Y-102936666D02*
X138642857Y-102936666D01*
X138071428Y-103222380D02*
X138404761Y-102222380D01*
X138738095Y-103222380D01*
X138976190Y-102222380D02*
X139642857Y-103222380D01*
X139642857Y-102222380D02*
X138976190Y-103222380D01*
X140452380Y-102555714D02*
X140452380Y-103222380D01*
X140214285Y-102174761D02*
X139976190Y-102889047D01*
X140595238Y-102889047D01*
X141119047Y-102650952D02*
X141023809Y-102603333D01*
X140976190Y-102555714D01*
X140928571Y-102460476D01*
X140928571Y-102412857D01*
X140976190Y-102317619D01*
X141023809Y-102270000D01*
X141119047Y-102222380D01*
X141309523Y-102222380D01*
X141404761Y-102270000D01*
X141452380Y-102317619D01*
X141500000Y-102412857D01*
X141500000Y-102460476D01*
X141452380Y-102555714D01*
X141404761Y-102603333D01*
X141309523Y-102650952D01*
X141119047Y-102650952D01*
X141023809Y-102698571D01*
X140976190Y-102746190D01*
X140928571Y-102841428D01*
X140928571Y-103031904D01*
X140976190Y-103127142D01*
X141023809Y-103174761D01*
X141119047Y-103222380D01*
X141309523Y-103222380D01*
X141404761Y-103174761D01*
X141452380Y-103127142D01*
X141500000Y-103031904D01*
X141500000Y-102841428D01*
X141452380Y-102746190D01*
X141404761Y-102698571D01*
X141309523Y-102650952D01*
X142404761Y-102222380D02*
X141928571Y-102222380D01*
X141880952Y-102698571D01*
X141928571Y-102650952D01*
X142023809Y-102603333D01*
X142261904Y-102603333D01*
X142357142Y-102650952D01*
X142404761Y-102698571D01*
X142452380Y-102793809D01*
X142452380Y-103031904D01*
X142404761Y-103127142D01*
X142357142Y-103174761D01*
X142261904Y-103222380D01*
X142023809Y-103222380D01*
X141928571Y-103174761D01*
X141880952Y-103127142D01*
X142880952Y-103222380D02*
X142880952Y-102222380D01*
X143214285Y-102936666D01*
X143547619Y-102222380D01*
X143547619Y-103222380D01*
X144738095Y-102174761D02*
X143880952Y-103460476D01*
X144928571Y-102222380D02*
X145500000Y-102222380D01*
X145214285Y-103222380D02*
X145214285Y-102222380D01*
X145690476Y-102222380D02*
X146261904Y-102222380D01*
X145976190Y-103222380D02*
X145976190Y-102222380D01*
X147071428Y-103222380D02*
X146595238Y-103222380D01*
X146595238Y-102222380D01*
D12*
%TO.C,U1*%
X130891900Y-101829110D02*
X131145900Y-101575110D01*
X130891900Y-101829110D02*
X127970900Y-101829110D01*
X127970900Y-91669110D02*
X130891900Y-91669110D01*
X131145900Y-91923110D02*
X131145900Y-101575110D01*
X131145900Y-91923110D02*
X130891900Y-91669110D01*
D13*
X130663300Y-101371910D02*
G75*
G03*
X130663300Y-101371910I-127000J0D01*
G01*
G36*
X127591094Y-95095520D02*
G01*
X126827900Y-95095520D01*
X126827900Y-93320110D01*
X127591094Y-93320110D01*
X127591094Y-95095520D01*
G37*
D14*
X127591094Y-95095520D02*
X126827900Y-95095520D01*
X126827900Y-93320110D01*
X127591094Y-93320110D01*
X127591094Y-95095520D01*
G36*
X128100040Y-98402890D02*
G01*
X126827900Y-98402890D01*
X126827900Y-97638110D01*
X128100040Y-97638110D01*
X128100040Y-98402890D01*
G37*
X128100040Y-98402890D02*
X126827900Y-98402890D01*
X126827900Y-97638110D01*
X128100040Y-97638110D01*
X128100040Y-98402890D01*
G36*
X127591081Y-100183420D02*
G01*
X126827900Y-100183420D01*
X126827900Y-98400110D01*
X127591081Y-98400110D01*
X127591081Y-100183420D01*
G37*
X127591081Y-100183420D02*
X126827900Y-100183420D01*
X126827900Y-98400110D01*
X127591081Y-98400110D01*
X127591081Y-100183420D01*
G36*
X128098320Y-102084890D02*
G01*
X126827900Y-102084890D01*
X126827900Y-100178110D01*
X128098320Y-100178110D01*
X128098320Y-102084890D01*
G37*
X128098320Y-102084890D02*
X126827900Y-102084890D01*
X126827900Y-100178110D01*
X128098320Y-100178110D01*
X128098320Y-102084890D01*
G36*
X127591244Y-97639678D02*
G01*
X126827900Y-97639678D01*
X126827900Y-95860110D01*
X127591244Y-95860110D01*
X127591244Y-97639678D01*
G37*
X127591244Y-97639678D02*
X126827900Y-97639678D01*
X126827900Y-95860110D01*
X127591244Y-95860110D01*
X127591244Y-97639678D01*
G36*
X128099440Y-93315960D02*
G01*
X126827900Y-93315960D01*
X126827900Y-91415110D01*
X128099440Y-91415110D01*
X128099440Y-93315960D01*
G37*
X128099440Y-93315960D02*
X126827900Y-93315960D01*
X126827900Y-91415110D01*
X128099440Y-91415110D01*
X128099440Y-93315960D01*
G36*
X128098460Y-95859721D02*
G01*
X126827900Y-95859721D01*
X126827900Y-95098110D01*
X128098460Y-95098110D01*
X128098460Y-95859721D01*
G37*
X128098460Y-95859721D02*
X126827900Y-95859721D01*
X126827900Y-95098110D01*
X128098460Y-95098110D01*
X128098460Y-95859721D01*
D15*
%TO.C,Q1*%
X180930000Y-88590000D02*
X180930000Y-87875000D01*
X184460000Y-79600000D02*
X184460000Y-76925000D01*
X180930000Y-74125000D02*
X180930000Y-73410000D01*
X179420000Y-83115000D02*
X180930000Y-83115000D01*
X180930000Y-79600000D02*
X180930000Y-76925000D01*
X179420000Y-78885000D02*
X180930000Y-78885000D01*
X179420000Y-73410000D02*
X184460000Y-73410000D01*
X184460000Y-74125000D02*
X184460000Y-73410000D01*
X184460000Y-88590000D02*
X184460000Y-87875000D01*
X179420000Y-88590000D02*
X184460000Y-88590000D01*
X180930000Y-85075000D02*
X180930000Y-82400000D01*
X184460000Y-85075000D02*
X184460000Y-82400000D01*
X179420000Y-88590000D02*
X179420000Y-73410000D01*
%TO.C,JN4Dba06*%
X170380000Y-63040000D02*
X170380000Y-61240000D01*
X182600000Y-71960000D02*
X182600000Y-59740000D01*
X179740000Y-61240000D02*
X179990000Y-59740000D01*
X172990000Y-59740000D02*
X173240000Y-61240000D01*
X170380000Y-61240000D02*
X182600000Y-61240000D01*
X182600000Y-63040000D02*
X170380000Y-63040000D01*
X170380000Y-71960000D02*
X182600000Y-71960000D01*
X179290000Y-72760000D02*
X178690000Y-72760000D01*
X174990000Y-59740000D02*
X172990000Y-59740000D01*
X178240000Y-61240000D02*
X179740000Y-61240000D01*
X174740000Y-61240000D02*
X174990000Y-59740000D01*
X178990000Y-72160000D02*
X179290000Y-72760000D01*
X173240000Y-61240000D02*
X174740000Y-61240000D01*
X178690000Y-72760000D02*
X178990000Y-72160000D01*
X170380000Y-59740000D02*
X170380000Y-71960000D01*
X177990000Y-59740000D02*
X178240000Y-61240000D01*
X182600000Y-61240000D02*
X182600000Y-63040000D01*
X182600000Y-59740000D02*
X170380000Y-59740000D01*
X179990000Y-59740000D02*
X177990000Y-59740000D01*
%TO.C,C1*%
X150491000Y-112040000D02*
X150491000Y-114626000D01*
X153091000Y-110559000D02*
X153091000Y-111441000D01*
X152691000Y-109267000D02*
X152691000Y-112733000D01*
X149530000Y-107180000D02*
X149530000Y-109960000D01*
X149490000Y-107177000D02*
X149490000Y-109960000D01*
X150931000Y-112040000D02*
X150931000Y-114447000D01*
X151571000Y-107942000D02*
X151571000Y-114058000D01*
X152411000Y-108805000D02*
X152411000Y-113195000D01*
X151851000Y-108173000D02*
X151851000Y-113827000D01*
X151371000Y-107802000D02*
X151371000Y-109960000D01*
X151331000Y-107776000D02*
X151331000Y-109960000D01*
X150691000Y-112040000D02*
X150691000Y-114553000D01*
X149370000Y-107171000D02*
X149370000Y-114829000D01*
X150091000Y-112040000D02*
X150091000Y-114738000D01*
X150171000Y-107280000D02*
X150171000Y-109960000D01*
X152051000Y-108368000D02*
X152051000Y-113632000D01*
X150851000Y-112040000D02*
X150851000Y-114484000D01*
X150371000Y-107335000D02*
X150371000Y-109960000D01*
X152091000Y-108411000D02*
X152091000Y-113589000D01*
X150851000Y-107516000D02*
X150851000Y-109960000D01*
X151171000Y-112040000D02*
X151171000Y-114321000D01*
X150811000Y-112040000D02*
X150811000Y-114502000D01*
X149890000Y-112040000D02*
X149890000Y-114777000D01*
X151731000Y-108069000D02*
X151731000Y-113931000D01*
X151611000Y-107972000D02*
X151611000Y-114028000D01*
X149971000Y-112040000D02*
X149971000Y-114763000D01*
X150411000Y-107347000D02*
X150411000Y-109960000D01*
X150051000Y-107253000D02*
X150051000Y-109960000D01*
X150611000Y-107416000D02*
X150611000Y-109960000D01*
X149890000Y-107223000D02*
X149890000Y-109960000D01*
X152491000Y-108923000D02*
X152491000Y-113077000D01*
X152811000Y-109522000D02*
X152811000Y-112478000D01*
X151331000Y-112040000D02*
X151331000Y-114224000D01*
X152771000Y-109431000D02*
X152771000Y-112569000D01*
X151531000Y-112040000D02*
X151531000Y-114088000D01*
X151131000Y-107657000D02*
X151131000Y-109960000D01*
X149250000Y-107170000D02*
X149250000Y-114830000D01*
X149770000Y-112040000D02*
X149770000Y-114795000D01*
X151411000Y-107828000D02*
X151411000Y-109960000D01*
X151491000Y-107884000D02*
X151491000Y-109960000D01*
X151211000Y-112040000D02*
X151211000Y-114297000D01*
X152011000Y-108327000D02*
X152011000Y-113673000D01*
X149850000Y-112040000D02*
X149850000Y-114784000D01*
X151091000Y-112040000D02*
X151091000Y-114365000D01*
X152371000Y-108750000D02*
X152371000Y-113250000D01*
X150811000Y-107498000D02*
X150811000Y-109960000D01*
X152291000Y-108645000D02*
X152291000Y-113355000D01*
X150651000Y-107432000D02*
X150651000Y-109960000D01*
X149610000Y-112040000D02*
X149610000Y-114814000D01*
X150091000Y-107262000D02*
X150091000Y-109960000D01*
X151291000Y-107751000D02*
X151291000Y-109960000D01*
X150451000Y-112040000D02*
X150451000Y-114640000D01*
X151211000Y-107703000D02*
X151211000Y-109960000D01*
X151931000Y-108248000D02*
X151931000Y-113752000D01*
X150251000Y-107301000D02*
X150251000Y-109960000D01*
X149570000Y-112040000D02*
X149570000Y-114817000D01*
X153011000Y-110123000D02*
X153011000Y-111877000D01*
X150491000Y-107374000D02*
X150491000Y-109960000D01*
X150891000Y-107534000D02*
X150891000Y-109960000D01*
X150251000Y-112040000D02*
X150251000Y-114699000D01*
X149410000Y-107173000D02*
X149410000Y-114827000D01*
X149730000Y-107199000D02*
X149730000Y-109960000D01*
X152451000Y-108863000D02*
X152451000Y-113137000D01*
X149810000Y-107210000D02*
X149810000Y-109960000D01*
X150571000Y-107402000D02*
X150571000Y-109960000D01*
X151011000Y-112040000D02*
X151011000Y-114407000D01*
X151891000Y-108210000D02*
X151891000Y-113790000D01*
X151771000Y-108102000D02*
X151771000Y-113898000D01*
X151651000Y-108004000D02*
X151651000Y-113996000D01*
X150131000Y-107271000D02*
X150131000Y-109960000D01*
X152531000Y-108986000D02*
X152531000Y-113014000D01*
X152171000Y-108500000D02*
X152171000Y-113500000D01*
X149490000Y-112040000D02*
X149490000Y-114823000D01*
X149610000Y-107186000D02*
X149610000Y-109960000D01*
X150011000Y-107245000D02*
X150011000Y-109960000D01*
X151371000Y-112040000D02*
X151371000Y-114198000D01*
X152731000Y-109346000D02*
X152731000Y-112654000D01*
X150011000Y-112040000D02*
X150011000Y-114755000D01*
X151171000Y-107679000D02*
X151171000Y-109960000D01*
X145107789Y-108825000D02*
X145857789Y-108825000D01*
X150171000Y-112040000D02*
X150171000Y-114720000D01*
X150531000Y-112040000D02*
X150531000Y-114613000D01*
X153051000Y-110307000D02*
X153051000Y-111693000D01*
X151971000Y-108287000D02*
X151971000Y-113713000D01*
X151051000Y-112040000D02*
X151051000Y-114386000D01*
X149690000Y-107195000D02*
X149690000Y-109960000D01*
X152131000Y-108454000D02*
X152131000Y-113546000D01*
X150211000Y-112040000D02*
X150211000Y-114710000D01*
X149650000Y-107190000D02*
X149650000Y-109960000D01*
X149530000Y-112040000D02*
X149530000Y-114820000D01*
X151011000Y-107593000D02*
X151011000Y-109960000D01*
X149290000Y-107170000D02*
X149290000Y-114830000D01*
X150731000Y-107464000D02*
X150731000Y-109960000D01*
X151411000Y-112040000D02*
X151411000Y-114172000D01*
X150331000Y-107323000D02*
X150331000Y-109960000D01*
X149850000Y-107216000D02*
X149850000Y-109960000D01*
X150571000Y-112040000D02*
X150571000Y-114598000D01*
X151691000Y-108036000D02*
X151691000Y-113964000D01*
X152211000Y-108546000D02*
X152211000Y-113454000D01*
X152251000Y-108595000D02*
X152251000Y-113405000D01*
X150051000Y-112040000D02*
X150051000Y-114747000D01*
X151131000Y-112040000D02*
X151131000Y-114343000D01*
X149730000Y-112040000D02*
X149730000Y-114801000D01*
X151251000Y-107726000D02*
X151251000Y-109960000D01*
X150691000Y-107447000D02*
X150691000Y-109960000D01*
X150451000Y-107360000D02*
X150451000Y-109960000D01*
X150971000Y-107573000D02*
X150971000Y-109960000D01*
X149450000Y-107175000D02*
X149450000Y-114825000D01*
X149930000Y-107230000D02*
X149930000Y-109960000D01*
X152851000Y-109619000D02*
X152851000Y-112381000D01*
X150531000Y-107387000D02*
X150531000Y-109960000D01*
X149930000Y-112040000D02*
X149930000Y-114770000D01*
X151291000Y-112040000D02*
X151291000Y-114249000D01*
X150291000Y-112040000D02*
X150291000Y-114688000D01*
X149971000Y-107237000D02*
X149971000Y-109960000D01*
X150731000Y-112040000D02*
X150731000Y-114536000D01*
X152571000Y-109051000D02*
X152571000Y-112949000D01*
X150771000Y-107480000D02*
X150771000Y-109960000D01*
X150891000Y-112040000D02*
X150891000Y-114466000D01*
X149330000Y-107170000D02*
X149330000Y-114830000D01*
X150771000Y-112040000D02*
X150771000Y-114520000D01*
X150371000Y-112040000D02*
X150371000Y-114665000D01*
X150211000Y-107290000D02*
X150211000Y-109960000D01*
X152891000Y-109725000D02*
X152891000Y-112275000D01*
X149770000Y-107205000D02*
X149770000Y-109960000D01*
X150131000Y-112040000D02*
X150131000Y-114729000D01*
X151451000Y-107856000D02*
X151451000Y-109960000D01*
X150931000Y-107553000D02*
X150931000Y-109960000D01*
X150611000Y-112040000D02*
X150611000Y-114584000D01*
X149810000Y-112040000D02*
X149810000Y-114790000D01*
X152651000Y-109191000D02*
X152651000Y-112809000D01*
X152931000Y-109842000D02*
X152931000Y-112158000D01*
X150291000Y-107312000D02*
X150291000Y-109960000D01*
X145482789Y-108450000D02*
X145482789Y-109200000D01*
X151531000Y-107912000D02*
X151531000Y-109960000D01*
X151091000Y-107635000D02*
X151091000Y-109960000D01*
X149570000Y-107183000D02*
X149570000Y-109960000D01*
X150971000Y-112040000D02*
X150971000Y-114427000D01*
X149650000Y-112040000D02*
X149650000Y-114810000D01*
X151811000Y-108137000D02*
X151811000Y-113863000D01*
X152611000Y-109119000D02*
X152611000Y-112881000D01*
X150651000Y-112040000D02*
X150651000Y-114568000D01*
X152971000Y-109972000D02*
X152971000Y-112028000D01*
X151491000Y-112040000D02*
X151491000Y-114116000D01*
X149690000Y-112040000D02*
X149690000Y-114805000D01*
X151251000Y-112040000D02*
X151251000Y-114274000D01*
X150331000Y-112040000D02*
X150331000Y-114677000D01*
X151451000Y-112040000D02*
X151451000Y-114144000D01*
X152331000Y-108696000D02*
X152331000Y-113304000D01*
X151051000Y-107614000D02*
X151051000Y-109960000D01*
X150411000Y-112040000D02*
X150411000Y-114653000D01*
X153120000Y-111000000D02*
G75*
G03*
X153120000Y-111000000I-3870000J0D01*
G01*
%TO.C,J4*%
X108470000Y-60670000D02*
X117590000Y-60670000D01*
X108470000Y-87960000D02*
X109780000Y-87960000D01*
X109780000Y-92060000D02*
X108470000Y-92060000D01*
X116280000Y-61970000D02*
X116280000Y-118050000D01*
X108470000Y-119350000D02*
X108470000Y-60670000D01*
X107080000Y-66380000D02*
X108080000Y-65880000D01*
X109780000Y-87960000D02*
X109780000Y-61970000D01*
X117590000Y-119350000D02*
X108470000Y-119350000D01*
X107080000Y-65380000D02*
X107080000Y-66380000D01*
X116280000Y-118050000D02*
X109780000Y-118050000D01*
X109780000Y-92060000D02*
X109780000Y-92060000D01*
X109780000Y-61970000D02*
X116280000Y-61970000D01*
X109780000Y-118050000D02*
X109780000Y-92060000D01*
X108080000Y-65880000D02*
X107080000Y-65380000D01*
X117590000Y-60670000D02*
X117590000Y-119350000D01*
%TO.C,C4*%
X142900000Y-74550000D02*
X142900000Y-77280000D01*
X142700000Y-79360000D02*
X142700000Y-82121000D01*
X142820000Y-74536000D02*
X142820000Y-77280000D01*
X144021000Y-74934000D02*
X144021000Y-77280000D01*
X144061000Y-79360000D02*
X144061000Y-81685000D01*
X145741000Y-76751000D02*
X145741000Y-79889000D01*
X143461000Y-74694000D02*
X143461000Y-77280000D01*
X145181000Y-75866000D02*
X145181000Y-80774000D01*
X144421000Y-75176000D02*
X144421000Y-77280000D01*
X142500000Y-74500000D02*
X142500000Y-77280000D01*
X143261000Y-79360000D02*
X143261000Y-82008000D01*
X144221000Y-75046000D02*
X144221000Y-77280000D01*
X143781000Y-74818000D02*
X143781000Y-77280000D01*
X143901000Y-79360000D02*
X143901000Y-81767000D01*
X145221000Y-75915000D02*
X145221000Y-80725000D01*
X143821000Y-79360000D02*
X143821000Y-81804000D01*
X142941000Y-74557000D02*
X142941000Y-77280000D01*
X143701000Y-79360000D02*
X143701000Y-81856000D01*
X142740000Y-74525000D02*
X142740000Y-77280000D01*
X144581000Y-75292000D02*
X144581000Y-81348000D01*
X143141000Y-74600000D02*
X143141000Y-77280000D01*
X143341000Y-74655000D02*
X143341000Y-77280000D01*
X143821000Y-74836000D02*
X143821000Y-77280000D01*
X146061000Y-77879000D02*
X146061000Y-78761000D01*
X143501000Y-74707000D02*
X143501000Y-77280000D01*
X145861000Y-77045000D02*
X145861000Y-79595000D01*
X145901000Y-77162000D02*
X145901000Y-79478000D01*
X143741000Y-74800000D02*
X143741000Y-77280000D01*
X143621000Y-79360000D02*
X143621000Y-81888000D01*
X144541000Y-75262000D02*
X144541000Y-81378000D01*
X144901000Y-75568000D02*
X144901000Y-81072000D01*
X144661000Y-75356000D02*
X144661000Y-81284000D01*
X145101000Y-75774000D02*
X145101000Y-80866000D01*
X142860000Y-79360000D02*
X142860000Y-82097000D01*
X144181000Y-75023000D02*
X144181000Y-77280000D01*
X143541000Y-79360000D02*
X143541000Y-81918000D01*
X144301000Y-75096000D02*
X144301000Y-77280000D01*
X143021000Y-74573000D02*
X143021000Y-77280000D01*
X144461000Y-75204000D02*
X144461000Y-77280000D01*
X142700000Y-74519000D02*
X142700000Y-77280000D01*
X144821000Y-75493000D02*
X144821000Y-81147000D01*
X143301000Y-79360000D02*
X143301000Y-81997000D01*
X142660000Y-74515000D02*
X142660000Y-77280000D01*
X142740000Y-79360000D02*
X142740000Y-82115000D01*
X142300000Y-74490000D02*
X142300000Y-82150000D01*
X144781000Y-75457000D02*
X144781000Y-81183000D01*
X144221000Y-79360000D02*
X144221000Y-81594000D01*
X143861000Y-79360000D02*
X143861000Y-81786000D01*
X142780000Y-79360000D02*
X142780000Y-82110000D01*
X145021000Y-75688000D02*
X145021000Y-80952000D01*
X142660000Y-79360000D02*
X142660000Y-82125000D01*
X145421000Y-76183000D02*
X145421000Y-80457000D01*
X143181000Y-79360000D02*
X143181000Y-82030000D01*
X143421000Y-74680000D02*
X143421000Y-77280000D01*
X143341000Y-79360000D02*
X143341000Y-81985000D01*
X143621000Y-74752000D02*
X143621000Y-77280000D01*
X143061000Y-79360000D02*
X143061000Y-82058000D01*
X142340000Y-74491000D02*
X142340000Y-82149000D01*
X142820000Y-79360000D02*
X142820000Y-82104000D01*
X143661000Y-79360000D02*
X143661000Y-81873000D01*
X143301000Y-74643000D02*
X143301000Y-77280000D01*
X142420000Y-74495000D02*
X142420000Y-82145000D01*
X142540000Y-74503000D02*
X142540000Y-77280000D01*
X143981000Y-79360000D02*
X143981000Y-81727000D01*
X143141000Y-79360000D02*
X143141000Y-82040000D01*
X138077789Y-76145000D02*
X138827789Y-76145000D01*
X143221000Y-79360000D02*
X143221000Y-82019000D01*
X142460000Y-74497000D02*
X142460000Y-77280000D01*
X142941000Y-79360000D02*
X142941000Y-82083000D01*
X144341000Y-75122000D02*
X144341000Y-77280000D01*
X144061000Y-74955000D02*
X144061000Y-77280000D01*
X144101000Y-74977000D02*
X144101000Y-77280000D01*
X143981000Y-74913000D02*
X143981000Y-77280000D01*
X142981000Y-74565000D02*
X142981000Y-77280000D01*
X142580000Y-79360000D02*
X142580000Y-82134000D01*
X144741000Y-75422000D02*
X144741000Y-81218000D01*
X145541000Y-76371000D02*
X145541000Y-80269000D01*
X144181000Y-79360000D02*
X144181000Y-81617000D01*
X144141000Y-74999000D02*
X144141000Y-77280000D01*
X145701000Y-76666000D02*
X145701000Y-79974000D01*
X145981000Y-77443000D02*
X145981000Y-79197000D01*
X144981000Y-75647000D02*
X144981000Y-80993000D01*
X143101000Y-74591000D02*
X143101000Y-77280000D01*
X143941000Y-74893000D02*
X143941000Y-77280000D01*
X144621000Y-75324000D02*
X144621000Y-81316000D01*
X142380000Y-74493000D02*
X142380000Y-82147000D01*
X138452789Y-75770000D02*
X138452789Y-76520000D01*
X143861000Y-74854000D02*
X143861000Y-77280000D01*
X145301000Y-76016000D02*
X145301000Y-80624000D01*
X145781000Y-76842000D02*
X145781000Y-79798000D01*
X142620000Y-79360000D02*
X142620000Y-82130000D01*
X145341000Y-76070000D02*
X145341000Y-80570000D01*
X145581000Y-76439000D02*
X145581000Y-80201000D01*
X143461000Y-79360000D02*
X143461000Y-81946000D01*
X142780000Y-74530000D02*
X142780000Y-77280000D01*
X143061000Y-74582000D02*
X143061000Y-77280000D01*
X145461000Y-76243000D02*
X145461000Y-80397000D01*
X142981000Y-79360000D02*
X142981000Y-82075000D01*
X144261000Y-75071000D02*
X144261000Y-77280000D01*
X145821000Y-76939000D02*
X145821000Y-79701000D01*
X145661000Y-76587000D02*
X145661000Y-80053000D01*
X142500000Y-79360000D02*
X142500000Y-82140000D01*
X143381000Y-79360000D02*
X143381000Y-81973000D01*
X143021000Y-79360000D02*
X143021000Y-82067000D01*
X142580000Y-74506000D02*
X142580000Y-77280000D01*
X144021000Y-79360000D02*
X144021000Y-81706000D01*
X145501000Y-76306000D02*
X145501000Y-80334000D01*
X145941000Y-77292000D02*
X145941000Y-79348000D01*
X142860000Y-74543000D02*
X142860000Y-77280000D01*
X143741000Y-79360000D02*
X143741000Y-81840000D01*
X144501000Y-79360000D02*
X144501000Y-81408000D01*
X145621000Y-76511000D02*
X145621000Y-80129000D01*
X144861000Y-75530000D02*
X144861000Y-81110000D01*
X144501000Y-75232000D02*
X144501000Y-77280000D01*
X145061000Y-75731000D02*
X145061000Y-80909000D01*
X142900000Y-79360000D02*
X142900000Y-82090000D01*
X143501000Y-79360000D02*
X143501000Y-81933000D01*
X144381000Y-75148000D02*
X144381000Y-77280000D01*
X144701000Y-75389000D02*
X144701000Y-81251000D01*
X143541000Y-74722000D02*
X143541000Y-77280000D01*
X144261000Y-79360000D02*
X144261000Y-81569000D01*
X143781000Y-79360000D02*
X143781000Y-81822000D01*
X142620000Y-74510000D02*
X142620000Y-77280000D01*
X143701000Y-74784000D02*
X143701000Y-77280000D01*
X144421000Y-79360000D02*
X144421000Y-81464000D01*
X143661000Y-74767000D02*
X143661000Y-77280000D01*
X144941000Y-75607000D02*
X144941000Y-81033000D01*
X144461000Y-79360000D02*
X144461000Y-81436000D01*
X143421000Y-79360000D02*
X143421000Y-81960000D01*
X143381000Y-74667000D02*
X143381000Y-77280000D01*
X144101000Y-79360000D02*
X144101000Y-81663000D01*
X142460000Y-79360000D02*
X142460000Y-82143000D01*
X144341000Y-79360000D02*
X144341000Y-81518000D01*
X143581000Y-79360000D02*
X143581000Y-81904000D01*
X143941000Y-79360000D02*
X143941000Y-81747000D01*
X143221000Y-74621000D02*
X143221000Y-77280000D01*
X143101000Y-79360000D02*
X143101000Y-82049000D01*
X144301000Y-79360000D02*
X144301000Y-81544000D01*
X145261000Y-75965000D02*
X145261000Y-80675000D01*
X142540000Y-79360000D02*
X142540000Y-82137000D01*
X143181000Y-74610000D02*
X143181000Y-77280000D01*
X143261000Y-74632000D02*
X143261000Y-77280000D01*
X143901000Y-74873000D02*
X143901000Y-77280000D01*
X146021000Y-77627000D02*
X146021000Y-79013000D01*
X143581000Y-74736000D02*
X143581000Y-77280000D01*
X142260000Y-74490000D02*
X142260000Y-82150000D01*
X144141000Y-79360000D02*
X144141000Y-81641000D01*
X145381000Y-76125000D02*
X145381000Y-80515000D01*
X145141000Y-75820000D02*
X145141000Y-80820000D01*
X144381000Y-79360000D02*
X144381000Y-81492000D01*
X142220000Y-74490000D02*
X142220000Y-82150000D01*
X146090000Y-78320000D02*
G75*
G03*
X146090000Y-78320000I-3870000J0D01*
G01*
%TO.C,C2*%
X130342600Y-76750000D02*
G75*
G03*
X130342600Y-76750000I-2620000J0D01*
G01*
%TO.C,J3*%
X184330000Y-93650000D02*
X184330000Y-101330000D01*
X183000000Y-91050000D02*
X184330000Y-91050000D01*
X181670000Y-101330000D02*
X184330000Y-101330000D01*
X181670000Y-93650000D02*
X181670000Y-101330000D01*
X184330000Y-91050000D02*
X184330000Y-92380000D01*
X181670000Y-93650000D02*
X184330000Y-93650000D01*
%TO.C,J1*%
X168960000Y-118135000D02*
X168960000Y-119465000D01*
X168960000Y-119465000D02*
X167630000Y-119465000D01*
X166360000Y-116805000D02*
X166360000Y-119465000D01*
X166360000Y-119465000D02*
X120580000Y-119465000D01*
X120580000Y-116805000D02*
X120580000Y-119465000D01*
X166360000Y-116805000D02*
X120580000Y-116805000D01*
%TO.C,JIO-1*%
X123670000Y-61207500D02*
X165890000Y-61207500D01*
X123670000Y-63007500D02*
X123670000Y-61207500D01*
X133280000Y-59707500D02*
X131280000Y-59707500D01*
X165890000Y-71927500D02*
X165890000Y-59707500D01*
X133030000Y-61207500D02*
X133280000Y-59707500D01*
X138030000Y-61207500D02*
X138280000Y-59707500D01*
X153280000Y-59707500D02*
X151280000Y-59707500D01*
X165890000Y-59707500D02*
X123670000Y-59707500D01*
X161980000Y-72727500D02*
X162280000Y-72127500D01*
X123670000Y-59707500D02*
X123670000Y-71927500D01*
X143280000Y-59707500D02*
X141280000Y-59707500D01*
X141530000Y-61207500D02*
X143030000Y-61207500D01*
X136280000Y-59707500D02*
X136530000Y-61207500D01*
X153030000Y-61207500D02*
X153280000Y-59707500D01*
X156280000Y-59707500D02*
X156530000Y-61207500D01*
X158280000Y-59707500D02*
X156280000Y-59707500D01*
X146530000Y-61207500D02*
X148030000Y-61207500D01*
X128030000Y-61207500D02*
X128280000Y-59707500D01*
X131280000Y-59707500D02*
X131530000Y-61207500D01*
X161530000Y-61207500D02*
X163030000Y-61207500D01*
X156530000Y-61207500D02*
X158030000Y-61207500D01*
X148030000Y-61207500D02*
X148280000Y-59707500D01*
X128280000Y-59707500D02*
X126280000Y-59707500D01*
X162580000Y-72727500D02*
X161980000Y-72727500D01*
X163030000Y-61207500D02*
X163280000Y-59707500D01*
X163280000Y-59707500D02*
X161280000Y-59707500D01*
X161280000Y-59707500D02*
X161530000Y-61207500D01*
X136530000Y-61207500D02*
X138030000Y-61207500D01*
X151280000Y-59707500D02*
X151530000Y-61207500D01*
X138280000Y-59707500D02*
X136280000Y-59707500D01*
X148280000Y-59707500D02*
X146280000Y-59707500D01*
X158030000Y-61207500D02*
X158280000Y-59707500D01*
X131530000Y-61207500D02*
X133030000Y-61207500D01*
X126530000Y-61207500D02*
X128030000Y-61207500D01*
X165890000Y-63007500D02*
X123670000Y-63007500D01*
X143030000Y-61207500D02*
X143280000Y-59707500D01*
X162280000Y-72127500D02*
X162580000Y-72727500D01*
X146280000Y-59707500D02*
X146530000Y-61207500D01*
X165890000Y-61207500D02*
X165890000Y-63007500D01*
X151530000Y-61207500D02*
X153030000Y-61207500D01*
X123670000Y-71927500D02*
X165890000Y-71927500D01*
X141280000Y-59707500D02*
X141530000Y-61207500D01*
X126280000Y-59707500D02*
X126530000Y-61207500D01*
%TO.C,R1*%
X165270000Y-76630000D02*
X158730000Y-76630000D01*
X165270000Y-79370000D02*
X165270000Y-76630000D01*
X158730000Y-76630000D02*
X158730000Y-79370000D01*
X166040000Y-78000000D02*
X165270000Y-78000000D01*
X157960000Y-78000000D02*
X158730000Y-78000000D01*
X158730000Y-79370000D02*
X165270000Y-79370000D01*
%TO.C,C3*%
X163620000Y-85000000D02*
G75*
G03*
X163620000Y-85000000I-2620000J0D01*
G01*
%TO.C,JV1*%
X170550000Y-108590000D02*
X170550000Y-105890000D01*
X185250000Y-115090000D02*
X170550000Y-115090000D01*
X171400000Y-115290000D02*
X170350000Y-115290000D01*
X170550000Y-105890000D02*
X172450000Y-105890000D01*
X170550000Y-115090000D02*
X170550000Y-112490000D01*
X176450000Y-105890000D02*
X185250000Y-105890000D01*
X185250000Y-105890000D02*
X185250000Y-115090000D01*
X170350000Y-114240000D02*
X170350000Y-115290000D01*
%TO.C,J2*%
X142000000Y-91050000D02*
X143330000Y-91050000D01*
X143330000Y-91050000D02*
X143330000Y-92380000D01*
X140670000Y-93650000D02*
X140670000Y-101330000D01*
X140670000Y-101330000D02*
X143330000Y-101330000D01*
X140670000Y-93650000D02*
X143330000Y-93650000D01*
X143330000Y-93650000D02*
X143330000Y-101330000D01*
%TD*%
M02*
